<?xml version="1.0" encoding="UTF-8"?>
<!DOCTYPE svg PUBLIC "-//W3C//DTD SVG 1.1//EN" "http://www.w3.org/Graphics/SVG/1.1/DTD/svg11.dtd">
<svg xmlns="http://www.w3.org/2000/svg" version="1.1" width="400px" height="400px" style="shape-rendering:geometricPrecision; text-rendering:geometricPrecision; image-rendering:optimizeQuality; fill-rule:evenodd; clip-rule:evenodd" xmlns:xlink="http://www.w3.org/1999/xlink">
<g><path style="opacity:0.999" fill="#040404" d="M 196.5,17.5 C 198.199,17.3398 199.866,17.5065 201.5,18C 207.337,21.4175 213.004,25.0842 218.5,29C 219.5,29.1667 220.5,29.3333 221.5,29.5C 226.919,27.9593 232.252,26.126 237.5,24C 240.167,23.3333 242.833,23.3333 245.5,24C 250.614,29.5698 255.947,34.9031 261.5,40C 267.514,40.5762 273.514,40.4095 279.5,39.5C 281.965,39.4777 284.298,39.9777 286.5,41C 290.5,48 294.5,55 298.5,62C 305.833,63.6667 313.167,65.3333 320.5,67C 321.701,67.9025 322.535,69.0692 323,70.5C 324.322,75.4279 325.322,80.4279 326,85.5C 326.725,87.9494 327.725,90.2827 329,92.5C 335.827,95.9128 342.494,99.5795 349,103.5C 349.704,105.278 350.204,107.112 350.5,109C 348.957,115.873 348.79,122.707 350,129.5C 355.524,134.268 360.857,139.268 366,144.5C 366.667,147.167 366.667,149.833 366,152.5C 362.885,158.167 361.219,164.167 361,170.5C 365.264,177.096 369.097,183.929 372.5,191C 370.187,196.656 367.02,201.823 363,206.5C 361.596,208.639 360.763,210.972 360.5,213.5C 362.03,218.923 363.863,224.256 366,229.5C 366.667,232.167 366.667,234.833 366,237.5C 361.374,242.306 356.374,246.639 351,250.5C 349.767,252.866 348.934,255.366 348.5,258C 349.134,262.84 349.801,267.674 350.5,272.5C 350.226,276.157 348.56,278.99 345.5,281C 339.139,283.263 333.306,286.429 328,290.5C 326.016,298.419 323.849,306.253 321.5,314C 313.802,315.894 306.135,317.894 298.5,320C 294.429,325.306 291.263,331.139 289,337.5C 287.833,338.667 286.667,339.833 285.5,341C 279.148,341.654 272.815,341.488 266.5,340.5C 263.567,340.466 260.9,341.299 258.5,343C 254.639,348.374 250.306,353.374 245.5,358C 243.167,358.667 240.833,358.667 238.5,358C 233.115,355.761 227.615,353.927 222,352.5C 215.901,353.633 210.735,356.466 206.5,361C 203.945,362.444 201.279,363.611 198.5,364.5C 192.863,362.348 187.863,359.181 183.5,355C 181.232,353.448 178.732,352.615 176,352.5C 170.372,353.894 164.872,355.728 159.5,358C 157.167,358.667 154.833,358.667 152.5,358C 147.723,352.434 142.723,347.101 137.5,342C 135.634,341.015 133.634,340.515 131.5,340.5C 125.185,341.488 118.852,341.654 112.5,341C 111.584,340.626 110.75,340.126 110,339.5C 107.14,333.919 104.474,328.252 102,322.5C 101.167,321.667 100.333,320.833 99.5,320C 91.5955,317.991 83.7621,315.824 76,313.5C 73.5418,305.982 71.5418,298.315 70,290.5C 64.6944,286.429 58.861,283.263 52.5,281C 50.8603,279.605 49.3603,278.105 48,276.5C 48.1893,268.508 48.1893,260.508 48,252.5C 42.8574,247.268 37.5241,242.268 32,237.5C 31.3333,234.833 31.3333,232.167 32,229.5C 33.6667,224.833 35.3333,220.167 37,215.5C 37.6667,213.833 37.6667,212.167 37,210.5C 34.2467,205.992 31.2467,201.659 28,197.5C 26.7428,195.487 25.9095,193.321 25.5,191C 29.3842,183.396 33.3842,175.896 37.5,168.5C 35.97,163.077 34.1367,157.744 32,152.5C 31.3333,149.833 31.3333,147.167 32,144.5C 37.3333,139.167 42.6667,133.833 48,128.5C 48.5762,122.486 48.4095,116.486 47.5,110.5C 47.4777,108.035 47.9777,105.702 49,103.5C 55.9155,99.6261 62.7488,95.6261 69.5,91.5C 71.653,84.2509 73.4863,76.9176 75,69.5C 76.214,67.9512 77.714,66.7845 79.5,66C 86.3519,65.1902 93.0186,63.6902 99.5,61.5C 100.48,60.0186 101.647,58.6853 103,57.5C 104.954,52.2951 107.287,47.2951 110,42.5C 110.903,41.2986 112.069,40.4652 113.5,40C 121.16,40.1528 128.827,40.1528 136.5,40C 141.833,34.6667 147.167,29.3333 152.5,24C 159.943,23.5876 166.943,25.2543 173.5,29C 175.5,29.6667 177.5,29.6667 179.5,29C 185.232,25.1436 190.899,21.3103 196.5,17.5 Z"/></g>
<g><path style="opacity:0.993" fill="#fcfcfc" d="M 198.5,30.5 C 201.118,31.9447 203.618,33.6113 206,35.5C 208.141,32.5088 210.975,31.3421 214.5,32C 216.017,33.6851 217.684,35.1851 219.5,36.5C 221.583,35.0413 223.75,33.7079 226,32.5C 228.05,34.8878 230.384,36.8878 233,38.5C 235.714,36.6529 238.547,36.3196 241.5,37.5C 242.815,39.3159 244.315,40.9825 246,42.5C 248.213,41.1981 250.546,40.1981 253,39.5C 254.5,41.6667 256,43.8333 257.5,46C 260.46,45.6799 263.46,45.6799 266.5,46C 267.585,48.172 268.919,50.172 270.5,52C 273.167,52 275.833,52 278.5,52C 279.437,54.7065 280.77,57.2065 282.5,59.5C 288.54,56.8613 291.873,58.8613 292.5,65.5C 295.327,66.9322 298.327,67.5988 301.5,67.5C 301.068,74.6241 304.402,77.6241 311.5,76.5C 311.933,79.1656 312.433,81.8323 313,84.5C 315.567,85.27 318.067,86.27 320.5,87.5C 319.966,94.1977 322.966,97.531 329.5,97.5C 329.335,100.518 329.502,103.518 330,106.5C 331.912,107.692 333.912,108.692 336,109.5C 336.333,112.5 336.667,115.5 337,118.5C 338.667,119.5 340.333,120.5 342,121.5C 342.32,124.54 342.32,127.54 342,130.5C 344.296,132.057 346.462,133.724 348.5,135.5C 347.757,137.638 347.09,139.804 346.5,142C 347.992,144.658 349.992,146.824 352.5,148.5C 351.593,151.057 350.593,153.557 349.5,156C 351.5,158 353.5,160 355.5,162C 351.72,166.197 351.886,170.03 356,173.5C 356.38,176.768 355.546,179.768 353.5,182.5C 354.651,184.809 355.984,186.976 357.5,189C 356.566,191.591 355.233,193.924 353.5,196C 354.417,198.581 355.751,200.914 357.5,203C 355.337,204.998 353.67,207.332 352.5,210C 353.363,212.227 354.363,214.393 355.5,216.5C 353.684,218.817 351.684,220.984 349.5,223C 350.399,225.192 351.399,227.358 352.5,229.5C 350.296,231.867 348.296,234.367 346.5,237C 347.167,239 347.833,241 348.5,243C 345.98,244.763 343.647,246.763 341.5,249C 343.655,253.993 342.321,257.493 337.5,259.5C 336.833,262.833 336.167,266.167 335.5,269.5C 333.833,270.167 332.167,270.833 330.5,271.5C 329.679,274.447 329.179,277.447 329,280.5C 326.546,281.198 324.213,282.198 322,283.5C 321.667,285.833 321.333,288.167 321,290.5C 318.667,291.877 316.167,292.877 313.5,293.5C 312.604,296.144 311.771,298.81 311,301.5C 308.539,302.218 306.039,302.885 303.5,303.5C 302.808,306.145 301.808,308.645 300.5,311C 297.854,311.497 295.187,311.664 292.5,311.5C 292.244,313.937 291.577,316.271 290.5,318.5C 287.5,319.167 284.5,319.833 281.5,320.5C 280.42,322.996 279.086,325.33 277.5,327.5C 274.834,326.262 272.168,326.262 269.5,327.5C 268.234,329.71 266.734,331.71 265,333.5C 262.547,332.507 260.047,332.34 257.5,333C 256.174,335.158 254.507,336.992 252.5,338.5C 250.362,337.757 248.196,337.09 246,336.5C 243.97,338.864 241.637,340.864 239,342.5C 237,341.833 235,341.167 233,340.5C 230.667,342.167 228.333,343.833 226,345.5C 223.773,344.637 221.607,343.637 219.5,342.5C 216.888,343.779 214.555,345.445 212.5,347.5C 210.167,346.167 207.833,344.833 205.5,343.5C 203.424,345.288 201.257,346.954 199,348.5C 196.656,346.819 194.323,345.152 192,343.5C 189.766,344.701 187.599,346.035 185.5,347.5C 182.888,346.221 180.555,344.555 178.5,342.5C 176.393,343.637 174.227,344.637 172,345.5C 169.622,343.617 167.122,341.95 164.5,340.5C 162.5,341.167 160.5,341.833 158.5,342.5C 156.188,340.689 154.022,338.689 152,336.5C 149.804,337.09 147.638,337.757 145.5,338.5C 143.308,337.141 141.641,335.308 140.5,333C 137.46,332.68 134.46,332.68 131.5,333C 130.373,331.247 129.373,329.413 128.5,327.5C 125.484,326.537 122.484,326.371 119.5,327C 118.214,324.978 117.214,322.811 116.5,320.5C 113.553,319.679 110.553,319.179 107.5,319C 106.5,316.667 105.5,314.333 104.5,312C 102.167,311.667 99.8333,311.333 97.5,311C 96.1919,308.645 95.1919,306.145 94.5,303.5C 91.9607,302.885 89.4607,302.218 87,301.5C 86.0615,298.879 85.2281,296.212 84.5,293.5C 77.279,293.267 74.6124,289.601 76.5,282.5C 73.8015,282.534 71.3015,281.867 69,280.5C 68.8214,277.447 68.3214,274.447 67.5,271.5C 65.8333,270.833 64.1667,270.167 62.5,269.5C 61.8333,266.167 61.1667,262.833 60.5,259.5C 58.1184,258.649 56.1184,257.316 54.5,255.5C 55.1667,253.5 55.8333,251.5 56.5,249.5C 54.1748,247.335 51.8414,245.168 49.5,243C 50.1667,241 50.8333,239 51.5,237C 49.8641,234.363 47.8641,232.03 45.5,230C 46.1147,227.485 47.1147,225.152 48.5,223C 46.316,220.984 44.316,218.817 42.5,216.5C 43.6368,214.393 44.6368,212.227 45.5,210C 43.6524,207.646 41.9857,205.146 40.5,202.5C 41.9652,200.401 43.2985,198.234 44.5,196C 42.9474,193.952 41.6141,191.785 40.5,189.5C 41.7954,187.19 43.1287,184.857 44.5,182.5C 43.1667,180.167 41.8333,177.833 40.5,175.5C 42.3722,173.465 44.0389,171.298 45.5,169C 44.5,166.667 43.5,164.333 42.5,162C 44.5053,159.995 46.5053,157.995 48.5,156C 47.5042,153.684 46.5042,151.35 45.5,149C 47.5,146.667 49.5,144.333 51.5,142C 50.5777,139.495 50.0777,136.995 50,134.5C 52.3092,133.025 54.4759,131.358 56.5,129.5C 55.7569,127.362 55.0903,125.196 54.5,123C 56.375,121.14 58.5417,119.64 61,118.5C 61.3333,115.5 61.6667,112.5 62,109.5C 64.0876,108.692 66.0876,107.692 68,106.5C 68.498,103.518 68.6646,100.518 68.5,97.5C 75.1764,97.5978 78.0097,94.2644 77,87.5C 79.6157,86.3468 82.2824,85.3468 85,84.5C 85.567,81.8323 86.067,79.1656 86.5,76.5C 93.5984,77.6241 96.9318,74.6241 96.5,67.5C 99.5176,67.2962 102.518,66.9629 105.5,66.5C 105.524,59.6244 108.691,57.291 115,59.5C 116.626,57.0829 118.126,54.5829 119.5,52C 122.167,52 124.833,52 127.5,52C 129.081,50.172 130.415,48.172 131.5,46C 134.514,45.8724 137.514,45.8724 140.5,46C 142,43.8333 143.5,41.6667 145,39.5C 147.333,40.5 149.667,41.5 152,42.5C 153.878,40.9571 155.378,39.1238 156.5,37C 159.516,36.336 162.349,36.836 165,38.5C 167.658,37.0082 169.824,35.0082 171.5,32.5C 173.833,33.8333 176.167,35.1667 178.5,36.5C 180.58,34.411 182.913,32.7444 185.5,31.5C 187.879,32.4419 190.046,33.7753 192,35.5C 193.965,33.4497 196.132,31.783 198.5,30.5 Z"/></g>
<g><path style="opacity:0.99" fill="#202020" d="M 185.5,37.5 C 253.672,35.3188 303.839,63.9855 336,123.5C 361.135,182.42 354.135,237.086 315,287.5C 268.317,337.513 212.151,352.346 146.5,332C 83.6177,305.305 50.2844,257.638 46.5,189C 50.9832,116.978 86.9832,68.6447 154.5,44C 164.796,40.9755 175.129,38.8088 185.5,37.5 Z"/></g>
<g><path style="opacity:0.984" fill="#f8f8f8" d="M 186.5,39.5 C 248.663,37.3249 296.163,62.3249 329,114.5C 354.642,163.704 354.975,213.037 330,262.5C 292.747,321.7 239.247,346.2 169.5,336C 111.846,322.53 73.6792,287.697 55,231.5C 40.002,170.63 55.1686,118.797 100.5,76C 125.505,55.1662 154.172,42.9996 186.5,39.5 Z"/></g>
<g><path style="opacity:0.999" fill="#131313" d="M 186.5,43.5 C 247.376,41.6379 293.876,66.3046 326,117.5C 350.279,164.659 350.613,211.992 327,259.5C 290.398,318.374 237.564,342.541 168.5,332C 103.137,314.435 64.9702,272.268 54,205.5C 50.0638,140.86 75.8971,92.3601 131.5,60C 149.012,51.3254 167.345,45.8254 186.5,43.5 Z"/></g>
<g><path style="opacity:0.985" fill="#fbfbfb" d="M 158.5,316.5 C 161.179,317.226 163.846,318.059 166.5,319C 167.237,322.022 166.904,325.022 165.5,328C 162.546,327.684 159.546,327.184 156.5,326.5C 156.959,323.123 157.626,319.789 158.5,316.5 Z"/></g>
<g><path style="opacity:0.98" fill="#fbfbfb" d="M 237.5,316.5 C 238.833,316.5 240.167,316.5 241.5,316.5C 241.866,318.905 242.533,321.238 243.5,323.5C 241.909,325.937 239.576,327.271 236.5,327.5C 235.558,327.392 234.725,327.059 234,326.5C 233.627,324.302 233.127,322.135 232.5,320C 233.921,318.377 235.588,317.21 237.5,316.5 Z"/></g>
<g><path style="opacity:0.981" fill="#fbfbfb" d="M 141.5,310.5 C 144.192,311.009 146.692,312.009 149,313.5C 148.842,316.502 148.342,319.502 147.5,322.5C 143.965,321.735 140.631,320.401 137.5,318.5C 138.847,315.807 140.18,313.14 141.5,310.5 Z"/></g>
<g><path style="opacity:0.983" fill="#fcfcfc" d="M 256.5,309.5 C 257.496,309.414 258.329,309.748 259,310.5C 260.039,312.746 261.206,314.913 262.5,317C 259.995,318.753 257.329,320.253 254.5,321.5C 248.603,316.04 249.27,312.04 256.5,309.5 Z"/></g>
<g><path style="opacity:0.975" fill="#fafafa" d="M 124.5,301.5 C 127.714,302.44 130.714,303.94 133.5,306C 131.779,308.619 129.946,311.119 128,313.5C 125.222,312.198 122.722,310.532 120.5,308.5C 122.098,306.302 123.431,303.969 124.5,301.5 Z"/></g>
<g><path style="opacity:0.982" fill="#f8f8f8" d="M 272.5,300.5 C 275.745,301.745 278.078,304.078 279.5,307.5C 277.17,309.667 274.503,311.334 271.5,312.5C 269.461,310.258 267.795,307.758 266.5,305C 268.389,303.236 270.389,301.736 272.5,300.5 Z"/></g>
<g><path style="opacity:0.976" fill="#fbfbfb" d="M 110.5,289.5 C 112.814,291.477 115.147,293.477 117.5,295.5C 116.219,298.447 114.219,300.781 111.5,302.5C 109.167,300.667 106.833,298.833 104.5,297C 106.334,294.337 108.334,291.837 110.5,289.5 Z"/></g>
<g><path style="opacity:0.984" fill="#fafafa" d="M 287.5,288.5 C 290.588,290.082 293.254,292.248 295.5,295C 293.017,297.406 290.35,299.573 287.5,301.5C 285.445,299.445 283.779,297.112 282.5,294.5C 284.19,292.481 285.856,290.481 287.5,288.5 Z"/></g>
<g><path style="opacity:0.994" fill="#f6f6f6" d="M 96.5,276.5 C 99.0702,278.403 101.404,280.737 103.5,283.5C 101.833,285.833 99.8333,287.833 97.5,289.5C 94.6894,287.856 92.356,285.69 90.5,283C 92.7059,280.963 94.7059,278.797 96.5,276.5 Z"/></g>
<g><path style="opacity:0.991" fill="#f5f5f5" d="M 300.5,275.5 C 310.398,278.412 310.898,282.412 302,287.5C 299.551,286.056 297.385,284.222 295.5,282C 297.054,279.713 298.721,277.546 300.5,275.5 Z"/></g>
<g><path style="opacity:0.988" fill="#fafafa" d="M 85.5,261.5 C 87.841,263.656 89.841,266.156 91.5,269C 89.1667,270.833 86.8333,272.667 84.5,274.5C 82.3404,272.169 80.3404,269.669 78.5,267C 81.02,265.303 83.3533,263.47 85.5,261.5 Z"/></g>
<g><path style="opacity:0.984" fill="#fcfcfc" d="M 311.5,260.5 C 315.024,260.929 318.024,262.429 320.5,265C 318.85,267.813 316.85,270.313 314.5,272.5C 311.804,271.149 309.47,269.316 307.5,267C 309.232,265.028 310.565,262.861 311.5,260.5 Z"/></g>
<g><path style="opacity:0.987" fill="#fafafa" d="M 76.5,245.5 C 78.5152,247.676 80.1819,250.176 81.5,253C 75.4629,259.969 71.4629,258.969 69.5,250C 71.5626,247.975 73.896,246.475 76.5,245.5 Z"/></g>
<g><path style="opacity:0.981" fill="#fafafa" d="M 320.5,243.5 C 323.884,244.343 326.884,245.843 329.5,248C 328.623,250.927 327.123,253.427 325,255.5C 322.073,254.623 319.573,253.123 317.5,251C 318.651,248.535 319.651,246.035 320.5,243.5 Z"/></g>
<g><path style="opacity:0.988" fill="#f6f6f6" d="M 67.5,228.5 C 68.8333,228.5 70.1667,228.5 71.5,228.5C 72.1667,231.5 72.8333,234.5 73.5,237.5C 71.095,237.866 68.7617,238.533 66.5,239.5C 65.8333,239.167 65.1667,238.833 64.5,238.5C 63.6948,236.085 62.6948,233.751 61.5,231.5C 63.5939,230.482 65.5939,229.482 67.5,228.5 Z"/></g>
<g><path style="opacity:0.987" fill="#f9f9f9" d="M 327.5,226.5 C 330.85,226.506 333.85,227.506 336.5,229.5C 335.518,232.096 334.851,234.762 334.5,237.5C 330.771,237.424 327.438,236.257 324.5,234C 325.601,231.528 326.601,229.028 327.5,226.5 Z"/></g>
<g><path style="opacity:0.991" fill="#f9f9f9" d="M 60.5,210.5 C 62.8333,210.5 65.1667,210.5 67.5,210.5C 67.2739,213.249 67.6072,215.916 68.5,218.5C 65.3462,220.026 62.0128,220.693 58.5,220.5C 58.4921,217.455 58.1587,214.455 57.5,211.5C 58.791,211.737 59.791,211.404 60.5,210.5 Z"/></g>
<g><path style="opacity:0.994" fill="#f8f8f8" d="M 331.5,207.5 C 334.391,208.403 337.391,208.736 340.5,208.5C 340.384,211.86 340.051,215.193 339.5,218.5C 336.167,218.167 332.833,217.833 329.5,217.5C 330.04,214.135 330.706,210.802 331.5,207.5 Z"/></g>
<g><path style="opacity:0.978" fill="#fbfbfb" d="M 55.5,191.5 C 58.8333,191.5 62.1667,191.5 65.5,191.5C 65.5,194.5 65.5,197.5 65.5,200.5C 62.5448,201.159 59.5448,201.492 56.5,201.5C 55.7929,198.214 55.4595,194.881 55.5,191.5 Z"/></g>
<g><path style="opacity:0.996" fill="#f6f6f6" d="M 332.5,184.5 C 335.833,184.5 339.167,184.5 342.5,184.5C 342.666,189.179 342.499,193.845 342,198.5C 338.929,199.138 335.763,199.138 332.5,198.5C 332.5,193.833 332.5,189.167 332.5,184.5 Z"/></g>
<g><path style="opacity:0.995" fill="#f3f3f3" d="M 56.5,172.5 C 60.0479,172.095 63.3812,172.595 66.5,174C 65.5562,176.719 65.2229,179.552 65.5,182.5C 62.8127,182.664 60.146,182.497 57.5,182C 56.6919,181.692 56.0253,181.192 55.5,180.5C 56.3928,177.916 56.7261,175.249 56.5,172.5 Z"/></g>
<g><path style="opacity:0.99" fill="#f9f9f9" d="M 331.5,165.5 C 334.5,165.5 337.5,165.5 340.5,165.5C 340.704,168.518 341.037,171.518 341.5,174.5C 338.167,174.833 334.833,175.167 331.5,175.5C 331.172,172.018 331.172,168.685 331.5,165.5 Z"/></g>
<g><path style="opacity:0.992" fill="#fafafa" d="M 60.5,152.5 C 63.4606,153.323 66.4606,153.99 69.5,154.5C 69.4519,157.313 68.7853,159.979 67.5,162.5C 64.6267,162.876 61.6267,162.876 58.5,162.5C 58.7878,159.061 59.4544,155.728 60.5,152.5 Z"/></g>
<g><path style="opacity:0.984" fill="#fbfbfb" d="M 333.5,145.5 C 334.75,145.577 335.583,146.244 336,147.5C 336.822,150.117 337.322,152.784 337.5,155.5C 334.52,155.62 331.687,156.287 329,157.5C 328.166,154.828 327.332,152.161 326.5,149.5C 328.643,147.79 330.977,146.457 333.5,145.5 Z"/></g>
<g><path style="opacity:0.976" fill="#fafafa" d="M 66.5,133.5 C 69.4061,134.787 72.4061,135.787 75.5,136.5C 75.0203,146.158 71.0203,147.991 63.5,142C 64.7979,139.273 65.7979,136.44 66.5,133.5 Z"/></g>
<g><path style="opacity:0.979" fill="#fbfbfb" d="M 325.5,127.5 C 328.753,128.763 330.753,131.263 331.5,135C 329.053,137.557 326.053,139.057 322.5,139.5C 322.193,136.72 321.193,134.22 319.5,132C 321.358,130.245 323.358,128.745 325.5,127.5 Z"/></g>
<g><path style="opacity:0.998" fill="#f8f8f8" d="M 75.5,116.5 C 78.5824,117.209 81.249,118.709 83.5,121C 81.3963,129.834 77.3963,130.667 71.5,123.5C 72.5923,120.976 73.9257,118.643 75.5,116.5 Z"/></g>
<g><path style="opacity:0.984" fill="#fafafa" d="M 317.5,109.5 C 319.248,112.431 321.248,115.264 323.5,118C 320.995,119.753 318.329,121.253 315.5,122.5C 313.11,120.733 311.443,118.4 310.5,115.5C 312.853,113.477 315.186,111.477 317.5,109.5 Z"/></g>
<g><path style="opacity:0.983" fill="#fafafa" d="M 86.5,99.5 C 89.4309,101.091 92.0976,103.091 94.5,105.5C 93.2003,108.432 91.2003,110.766 88.5,112.5C 85.8037,111.149 83.4704,109.316 81.5,107C 83.4146,104.6 85.0812,102.1 86.5,99.5 Z"/></g>
<g><path style="opacity:0.979" fill="#fdfdfd" d="M 304.5,94.5 C 307.79,95.7894 310.123,98.1228 311.5,101.5C 309.47,103.607 307.303,105.607 305,107.5C 302.778,105.615 300.944,103.449 299.5,101C 300.985,98.683 302.652,96.5164 304.5,94.5 Z"/></g>
<g><path style="opacity:0.958" fill="#f9f9f9" d="M 99.5,85.5 C 102.524,87.003 105.19,89.1697 107.5,92C 105.333,94.1667 103.167,96.3333 101,98.5C 98.7802,95.979 96.2802,93.8123 93.5,92C 95.7059,89.9633 97.7059,87.7966 99.5,85.5 Z"/></g>
<g><path style="opacity:0.995" fill="#f4f4f4" d="M 290.5,80.5 C 300.108,83.6278 300.775,87.9611 292.5,93.5C 290.167,91.5 287.833,89.5 285.5,87.5C 287.605,85.4084 289.272,83.0751 290.5,80.5 Z"/></g>
<g><path style="opacity:0.976" fill="#f8f8f8" d="M 115.5,72.5 C 117.719,74.5755 119.719,76.9088 121.5,79.5C 119.766,82.2003 117.432,84.2003 114.5,85.5C 112.273,83.3932 110.273,81.0599 108.5,78.5C 110.878,76.448 113.211,74.448 115.5,72.5 Z"/></g>
<g><path style="opacity:0.992" fill="#fafafa" d="M 275.5,68.5 C 278.533,70.016 281.2,72.016 283.5,74.5C 281.667,76.8333 279.833,79.1667 278,81.5C 275.411,79.7888 272.911,77.9555 270.5,76C 272.301,73.5574 273.968,71.0574 275.5,68.5 Z"/></g>
<g><path style="opacity:0.977" fill="#fdfdfd" d="M 131.5,62.5 C 132.496,62.4142 133.329,62.7476 134,63.5C 135.039,65.7463 136.206,67.913 137.5,70C 135.067,71.6324 132.567,73.1324 130,74.5C 128.054,72.1194 126.221,69.6194 124.5,67C 126.898,65.4758 129.231,63.9758 131.5,62.5 Z"/></g>
<g><path style="opacity:0.98" fill="#f8f8f8" d="M 257.5,59.5 C 267.42,60.5973 268.92,64.5973 262,71.5C 259.242,70.3659 256.742,68.8659 254.5,67C 255.651,64.5351 256.651,62.0351 257.5,59.5 Z"/></g>
<g><path style="opacity:0.991" fill="#f6f6f6" d="M 186.5,57.5 C 242.345,55.0006 284.845,77.334 314,124.5C 335.252,166.148 335.918,208.148 316,250.5C 284.04,304.228 236.873,327.061 174.5,319C 121.24,306.407 86.7402,273.907 71,221.5C 59.3793,162.952 77.2127,115.785 124.5,80C 143.494,67.6157 164.16,60.1157 186.5,57.5 Z"/></g>
<g><path style="opacity:1" fill="#161616" d="M 186.5,61.5 C 249.551,59.4236 293.718,87.0902 319,144.5C 334.479,192.307 326.479,235.641 295,274.5C 253.974,315.842 205.807,327.009 150.5,308C 93.7319,280.83 67.5652,235.663 72,172.5C 80.808,120.022 110.308,84.8549 160.5,67C 169.193,64.6129 177.86,62.7795 186.5,61.5 Z"/></g>
<g><path style="opacity:0.999" fill="#fdfdfd" d="M 183.5,66.5 C 184.943,67.3351 185.943,68.6684 186.5,70.5C 187.833,65.1667 189.167,65.1667 190.5,70.5C 191.833,65.1667 193.167,65.1667 194.5,70.5C 195.833,65.1667 197.167,65.1667 198.5,70.5C 199.833,65.1667 201.167,65.1667 202.5,70.5C 203.833,65.1667 205.167,65.1667 206.5,70.5C 207.833,65.1667 209.167,65.1667 210.5,70.5C 212.019,65.4365 213.186,65.7698 214,71.5C 214.909,66.2702 216.075,66.2702 217.5,71.5C 218.167,70.5 218.833,69.5 219.5,68.5C 220.167,69.8333 220.833,71.1667 221.5,72.5C 222.833,68.5 224.167,68.5 225.5,72.5C 226.167,71.5 226.833,70.5 227.5,69.5C 228.047,75.5307 229.38,75.8641 231.5,70.5C 232.731,71.6507 232.731,72.8173 231.5,74C 232,74.5 232.5,75 233,75.5C 233.583,73.9984 234.416,72.6651 235.5,71.5C 235.669,73.1173 236.003,74.784 236.5,76.5C 237.584,75.3349 238.417,74.0016 239,72.5C 239.5,73 240,73.5 240.5,74C 239.269,75.1827 239.269,76.3493 240.5,77.5C 241.167,76.5 241.833,75.5 242.5,74.5C 243.731,75.6507 243.731,76.8173 242.5,78C 244.409,78.4479 245.576,77.6145 246,75.5C 246.5,76 247,76.5 247.5,77C 246.269,78.1827 246.269,79.3493 247.5,80.5C 248.386,79.675 248.719,78.675 248.5,77.5C 249.552,77.3505 250.552,77.5172 251.5,78C 249.983,82.9029 250.65,83.4029 253.5,79.5C 253.833,80.8333 254.167,82.1667 254.5,83.5C 255.532,81.9604 256.865,81.4604 258.5,82C 257.483,83.0495 257.316,84.2161 258,85.5C 258.837,83.9926 260.004,83.4926 261.5,84C 260.662,88.4339 261.496,88.6006 264,84.5C 263.954,86.3126 264.12,87.9793 264.5,89.5C 268.472,86.6427 269.139,87.1427 266.5,91C 268.047,91.3334 269.38,90.8334 270.5,89.5C 271.594,90.868 271.26,92.0347 269.5,93C 271.202,94.5833 272.536,94.0833 273.5,91.5C 273.88,93.0207 274.046,94.6874 274,96.5C 274.689,95.6433 275.522,94.9767 276.5,94.5C 276.833,95.8333 277.167,97.1667 277.5,98.5C 280.926,96.2773 281.259,96.944 278.5,100.5C 278.833,100.833 279.167,101.167 279.5,101.5C 283.279,98.783 283.945,99.283 281.5,103C 282,103.5 282.5,104 283,104.5C 286.476,101.814 286.976,102.147 284.5,105.5C 285.868,106.594 287.035,106.26 288,104.5C 289.628,105.819 289.461,107.152 287.5,108.5C 288.868,109.594 290.035,109.26 291,107.5C 291.333,109.047 290.833,110.38 289.5,111.5C 290.868,112.594 292.035,112.26 293,110.5C 294.628,111.819 294.461,113.152 292.5,114.5C 293.833,114.833 295.167,115.167 296.5,115.5C 295.833,116.167 295.167,116.833 294.5,117.5C 296.021,117.88 297.687,118.046 299.5,118C 298.5,119 297.5,120 296.5,121C 298.313,120.954 299.979,121.12 301.5,121.5C 298.917,122.464 298.417,123.798 300,125.5C 300.965,123.74 302.132,123.406 303.5,124.5C 302.91,125.799 301.91,126.632 300.5,127C 301,127.5 301.5,128 302,128.5C 305.757,127.018 306.257,127.684 303.5,130.5C 304.833,130.833 306.167,131.167 307.5,131.5C 306.263,132.281 305.263,133.281 304.5,134.5C 306.021,134.88 307.687,135.046 309.5,135C 308.5,135.833 307.5,136.667 306.5,137.5C 308.256,137.36 309.922,137.86 311.5,139C 310.09,139.368 309.09,140.201 308.5,141.5C 309.687,141.554 311.02,141.887 312.5,142.5C 311.5,143.167 310.5,143.833 309.5,144.5C 310.651,145.731 311.817,145.731 313,144.5C 313.5,145 314,145.5 314.5,146C 313.09,146.368 312.09,147.201 311.5,148.5C 312.687,148.554 314.02,148.887 315.5,149.5C 314.675,150.386 313.675,150.719 312.5,150.5C 312.351,151.552 312.517,152.552 313,153.5C 314.183,152.269 315.349,152.269 316.5,153.5C 315.5,154.167 314.5,154.833 313.5,155.5C 314.651,156.731 315.817,156.731 317,155.5C 317.483,156.448 317.649,157.448 317.5,158.5C 316.325,158.281 315.325,158.614 314.5,159.5C 315.651,160.731 316.817,160.731 318,159.5C 318.309,161.391 317.475,162.725 315.5,163.5C 316.391,164.59 317.391,164.59 318.5,163.5C 318.833,163.833 319.167,164.167 319.5,164.5C 318.5,165.333 317.5,166.167 316.5,167C 321.07,167.55 321.403,168.717 317.5,170.5C 321.5,171.833 321.5,173.167 317.5,174.5C 322.833,175.833 322.833,177.167 317.5,178.5C 322.833,179.833 322.833,181.167 317.5,182.5C 318.833,183.167 320.167,183.833 321.5,184.5C 317.556,186.404 317.89,187.404 322.5,187.5C 322.5,188.833 322.5,190.167 322.5,191.5C 317.89,191.596 317.556,192.596 321.5,194.5C 320.271,195.281 318.938,195.781 317.5,196C 318.759,196.923 320.092,197.757 321.5,198.5C 316.318,199.776 316.318,200.443 321.5,200.5C 321.5,201.5 321.5,202.5 321.5,203.5C 316.78,203.225 316.446,204.059 320.5,206C 319.062,206.219 317.729,206.719 316.5,207.5C 317.908,208.243 319.241,209.077 320.5,210C 315.93,210.55 315.597,211.717 319.5,213.5C 318.167,214.167 316.833,214.833 315.5,215.5C 319.403,217.283 319.07,218.45 314.5,219C 315.5,219.833 316.5,220.667 317.5,221.5C 316.167,221.833 314.833,222.167 313.5,222.5C 314.263,223.719 315.263,224.719 316.5,225.5C 315.167,225.833 313.833,226.167 312.5,226.5C 313.325,227.386 314.325,227.719 315.5,227.5C 315.719,228.675 315.386,229.675 314.5,230.5C 311.212,229.462 310.879,230.128 313.5,232.5C 312.167,232.833 310.833,233.167 309.5,233.5C 310.263,234.719 311.263,235.719 312.5,236.5C 311.167,236.833 309.833,237.167 308.5,237.5C 309.5,238.333 310.5,239.167 311.5,240C 309.687,239.954 308.021,240.12 306.5,240.5C 307.263,241.719 308.263,242.719 309.5,243.5C 307.784,243.997 306.117,244.331 304.5,244.5C 308.641,247.099 308.474,247.765 304,246.5C 302.417,248.202 302.917,249.536 305.5,250.5C 303.979,250.88 302.313,251.046 300.5,251C 301.5,251.833 302.5,252.667 303.5,253.5C 301.784,253.997 300.117,254.331 298.5,254.5C 301.083,255.464 301.583,256.798 300,258.5C 298.915,256.343 297.749,256.176 296.5,258C 297.328,258.915 298.328,259.581 299.5,260C 298.181,261.628 296.848,261.461 295.5,259.5C 295.167,259.833 294.833,260.167 294.5,260.5C 297.217,264.279 296.717,264.945 293,262.5C 292.46,264.135 292.96,265.468 294.5,266.5C 293.132,267.594 291.965,267.26 291,265.5C 289.372,266.819 289.539,268.152 291.5,269.5C 290.132,270.594 288.965,270.26 288,268.5C 286.417,270.202 286.917,271.536 289.5,272.5C 289.167,272.833 288.833,273.167 288.5,273.5C 284.5,270.833 283.833,271.5 286.5,275.5C 286.167,275.833 285.833,276.167 285.5,276.5C 281.721,273.783 281.055,274.283 283.5,278C 281.874,277.805 280.207,277.805 278.5,278C 280.26,278.965 280.594,280.132 279.5,281.5C 278.522,281.023 277.689,280.357 277,279.5C 277.046,281.313 276.88,282.979 276.5,284.5C 272.879,281.797 272.212,282.13 274.5,285.5C 273.132,286.594 271.965,286.26 271,284.5C 271.046,286.313 270.88,287.979 270.5,289.5C 269.536,286.917 268.202,286.417 266.5,288C 268.26,288.965 268.594,290.132 267.5,291.5C 263.911,288.54 262.744,289.207 264,293.5C 263.311,292.643 262.478,291.977 261.5,291.5C 261.167,292.833 260.833,294.167 260.5,295.5C 259.536,292.917 258.202,292.417 256.5,294C 258.945,297.717 258.279,298.217 254.5,295.5C 254.167,296.833 253.833,298.167 253.5,299.5C 250.901,295.359 250.235,295.526 251.5,300C 249.798,301.583 248.464,301.083 247.5,298.5C 247.167,299.833 246.833,301.167 246.5,302.5C 245.536,299.917 244.202,299.417 242.5,301C 243.731,302.183 243.731,303.349 242.5,304.5C 240.717,300.597 239.55,300.93 239,305.5C 238.167,304.5 237.333,303.5 236.5,302.5C 236.167,303.833 235.833,305.167 235.5,306.5C 234.667,305.5 233.833,304.5 233,303.5C 232.45,308.07 231.283,308.403 229.5,304.5C 228.833,305.833 228.167,307.167 227.5,308.5C 226.833,307.5 226.167,306.5 225.5,305.5C 224.269,306.651 224.269,307.817 225.5,309C 224.552,309.483 223.552,309.649 222.5,309.5C 222.719,308.325 222.386,307.325 221.5,306.5C 221.167,307.833 220.833,309.167 220.5,310.5C 218.026,306.187 216.526,306.52 216,311.5C 214.648,306.298 213.482,306.298 212.5,311.5C 211.167,307.5 209.833,307.5 208.5,311.5C 207.833,310.5 207.167,309.5 206.5,308.5C 205.167,313.833 203.833,313.833 202.5,308.5C 201.167,313.833 199.833,313.833 198.5,308.5C 197.167,313.833 195.833,313.833 194.5,308.5C 193.167,312.5 191.833,312.5 190.5,308.5C 188.717,312.403 187.55,312.07 187,307.5C 186.077,308.759 185.243,310.092 184.5,311.5C 183.833,310.167 183.167,308.833 182.5,307.5C 181.167,311.5 179.833,311.5 178.5,307.5C 177.833,308.5 177.167,309.5 176.5,310.5C 176.167,309.167 175.833,307.833 175.5,306.5C 174.719,307.737 173.719,308.737 172.5,309.5C 172.167,308.167 171.833,306.833 171.5,305.5C 170.833,306.5 170.167,307.5 169.5,308.5C 168.833,307.167 168.167,305.833 167.5,304.5C 165.717,308.403 164.55,308.07 164,303.5C 163.167,304.5 162.333,305.5 161.5,306.5C 161.167,305.167 160.833,303.833 160.5,302.5C 159.201,303.09 158.368,304.09 158,305.5C 157.5,305 157,304.5 156.5,304C 157.731,302.817 157.731,301.651 156.5,300.5C 154.717,304.403 153.55,304.07 153,299.5C 152.167,300.5 151.333,301.5 150.5,302.5C 150.331,300.883 149.997,299.216 149.5,297.5C 148.614,298.325 148.281,299.325 148.5,300.5C 145.074,300.65 144.741,299.484 147.5,297C 145.865,296.46 144.532,296.96 143.5,298.5C 143.167,297.167 142.833,295.833 142.5,294.5C 141.536,297.083 140.202,297.583 138.5,296C 140.26,295.035 140.594,293.868 139.5,292.5C 138.281,293.263 137.281,294.263 136.5,295.5C 136.331,293.883 135.997,292.216 135.5,290.5C 134.667,291.5 133.833,292.5 133,293.5C 133.046,291.687 132.88,290.021 132.5,288.5C 131.5,289.167 130.5,289.833 129.5,290.5C 129.835,289.336 129.835,288.003 129.5,286.5C 125.721,289.217 125.055,288.717 127.5,285C 125.798,283.417 124.464,283.917 123.5,286.5C 123.12,284.979 122.954,283.313 123,281.5C 122.035,283.26 120.868,283.594 119.5,282.5C 121.461,281.152 121.628,279.819 120,278.5C 119.167,279.5 118.333,280.5 117.5,281.5C 116.758,279.892 116.591,278.225 117,276.5C 113.283,278.945 112.783,278.279 115.5,274.5C 115.167,274.167 114.833,273.833 114.5,273.5C 113.38,274.833 112.047,275.333 110.5,275C 113.471,271.088 113.138,270.255 109.5,272.5C 108.406,271.132 108.74,269.965 110.5,269C 108.874,269.195 107.207,269.195 105.5,269C 106.357,268.311 107.023,267.478 107.5,266.5C 105.979,266.12 104.313,265.954 102.5,266C 106.819,262.847 106.486,262.014 101.5,263.5C 101.167,263.167 100.833,262.833 100.5,262.5C 101.167,261.833 101.833,261.167 102.5,260.5C 101.167,260.167 99.8333,259.833 98.5,259.5C 98.9767,258.522 99.6433,257.689 100.5,257C 96.2067,258.256 95.54,257.089 98.5,253.5C 97.132,252.406 95.9653,252.74 95,254.5C 93.4167,252.798 93.9167,251.464 96.5,250.5C 94.8827,250.331 93.216,249.997 91.5,249.5C 95.6411,246.901 95.4745,246.235 91,247.5C 89.4167,245.798 89.9167,244.464 92.5,243.5C 90.8827,243.331 89.216,242.997 87.5,242.5C 88.5,241.833 89.5,241.167 90.5,240.5C 89.0202,239.887 87.6869,239.554 86.5,239.5C 87.2634,238.281 88.2634,237.281 89.5,236.5C 87.8827,236.331 86.216,235.997 84.5,235.5C 85.7366,234.719 86.7366,233.719 87.5,232.5C 86.3131,232.446 84.9798,232.113 83.5,231.5C 84.5,230.833 85.5,230.167 86.5,229.5C 85.3493,228.269 84.1827,228.269 83,229.5C 82.5172,228.552 82.3505,227.552 82.5,226.5C 83.675,226.719 84.675,226.386 85.5,225.5C 84.3493,224.269 83.1827,224.269 82,225.5C 81.5,225 81,224.5 80.5,224C 85.7145,222.326 85.3811,221.159 79.5,220.5C 84.8641,218.38 84.5307,217.047 78.5,216.5C 83.8333,215.167 83.8333,213.833 78.5,212.5C 79.5,211.833 80.5,211.167 81.5,210.5C 80.1667,209.833 78.8333,209.167 77.5,208.5C 81.4034,206.717 81.0701,205.55 76.5,205C 77.7588,204.077 79.0921,203.243 80.5,202.5C 79.2713,201.719 77.938,201.219 76.5,201C 81.7021,199.648 81.7021,198.482 76.5,197.5C 80.5,196.167 80.5,194.833 76.5,193.5C 77.5,192.833 78.5,192.167 79.5,191.5C 74.1667,190.167 74.1667,188.833 79.5,187.5C 75.5,186.167 75.5,184.833 79.5,183.5C 75.5,182.167 75.5,180.833 79.5,179.5C 78.5,178.833 77.5,178.167 76.5,177.5C 81.8333,176.167 81.8333,174.833 76.5,173.5C 77.8333,172.833 79.1667,172.167 80.5,171.5C 76.5966,169.717 76.9299,168.55 81.5,168C 79.7448,167.28 78.9115,166.113 79,164.5C 80.1827,165.731 81.3493,165.731 82.5,164.5C 81.3349,163.416 80.0016,162.583 78.5,162C 84.3405,161.437 84.6739,160.27 79.5,158.5C 81.1667,157.833 82.8333,157.167 84.5,156.5C 79.3261,154.73 79.6595,153.563 85.5,153C 84.09,152.632 83.09,151.799 82.5,150.5C 83.8333,150.167 85.1667,149.833 86.5,149.5C 85.5,148.667 84.5,147.833 83.5,147C 88.2809,146.482 88.6142,145.148 84.5,143C 89.6836,143.126 90.3503,141.959 86.5,139.5C 87.8333,139.167 89.1667,138.833 90.5,138.5C 87.9167,137.536 87.4167,136.202 89,134.5C 93.4745,135.765 93.6411,135.099 89.5,132.5C 91.1173,132.331 92.784,131.997 94.5,131.5C 93.5,130.667 92.5,129.833 91.5,129C 93.3126,129.046 94.9793,128.88 96.5,128.5C 95.7366,127.281 94.7366,126.281 93.5,125.5C 95.0207,125.12 96.6874,124.954 98.5,125C 97.6433,124.311 96.9767,123.478 96.5,122.5C 97.8333,122.167 99.1667,121.833 100.5,121.5C 97.7966,117.879 98.13,117.212 101.5,119.5C 101.833,119.167 102.167,118.833 102.5,118.5C 99.783,114.721 100.283,114.055 104,116.5C 104.507,115.004 104.007,113.837 102.5,113C 103.819,111.372 105.152,111.539 106.5,113.5C 106.833,113.167 107.167,112.833 107.5,112.5C 104.643,108.528 105.143,107.861 109,110.5C 109.507,109.004 109.007,107.837 107.5,107C 108.819,105.372 110.152,105.539 111.5,107.5C 112.594,106.132 112.26,104.965 110.5,104C 111.899,103.405 113.232,103.572 114.5,104.5C 114.5,103.167 114.5,101.833 114.5,100.5C 118.167,102.833 118.833,102.167 116.5,98.5C 116.833,98.1667 117.167,97.8333 117.5,97.5C 118.5,98.1667 119.5,98.8333 120.5,99.5C 120.5,98.1667 120.5,96.8333 120.5,95.5C 124.167,97.8333 124.833,97.1667 122.5,93.5C 122.833,93.1667 123.167,92.8333 123.5,92.5C 127.502,95.3429 128.168,94.8429 125.5,91C 125.833,90.5 126.167,90 126.5,89.5C 127.464,92.0833 128.798,92.5833 130.5,91C 128.343,89.9153 128.176,88.7487 130,87.5C 130.833,88.5 131.667,89.5 132.5,90.5C 132.669,88.8827 133.003,87.216 133.5,85.5C 136.242,89.6196 136.909,89.2863 135.5,84.5C 135.833,84.1667 136.167,83.8333 136.5,83.5C 137.464,86.0833 138.798,86.5833 140.5,85C 138.74,84.0347 138.406,82.868 139.5,81.5C 140.719,82.2634 141.719,83.2634 142.5,84.5C 143.452,83.467 143.452,82.3004 142.5,81C 142.833,80.5 143.167,80 143.5,79.5C 144.167,80.5 144.833,81.5 145.5,82.5C 146.731,81.3493 146.731,80.1827 145.5,79C 147.202,77.4167 148.536,77.9167 149.5,80.5C 149.833,79.1667 150.167,77.8333 150.5,76.5C 151.464,79.0833 152.798,79.5833 154.5,78C 153.235,73.5255 153.901,73.3589 156.5,77.5C 156.833,76.1667 157.167,74.8333 157.5,73.5C 158.281,74.7366 159.281,75.7366 160.5,76.5C 160.833,75.1667 161.167,73.8333 161.5,72.5C 162.333,73.5 163.167,74.5 164,75.5C 164.563,69.6595 165.73,69.3261 167.5,74.5C 168.047,68.4693 169.38,68.1359 171.5,73.5C 172.113,72.0202 172.446,70.6869 172.5,69.5C 173.719,70.2634 174.719,71.2634 175.5,72.5C 175.833,71.1667 176.167,69.8333 176.5,68.5C 177.386,69.325 177.719,70.325 177.5,71.5C 178.675,71.719 179.675,71.3857 180.5,70.5C 179.41,69.3914 179.41,68.3914 180.5,67.5C 182.895,72.994 183.895,72.6606 183.5,66.5 Z"/></g>
<g><path style="opacity:1" fill="#636363" d="M 118.5,202.5 C 120.288,202.215 121.955,202.548 123.5,203.5C 122.311,204.429 120.978,204.762 119.5,204.5C 119.167,203.833 118.833,203.167 118.5,202.5 Z"/></g>
<g><path style="opacity:1" fill="#0a0a0a" d="M 119.5,204.5 C 120.978,204.762 122.311,204.429 123.5,203.5C 121.955,202.548 120.288,202.215 118.5,202.5C 117.12,202.038 116.453,201.038 116.5,199.5C 119.993,186.742 128.659,182.242 142.5,186C 149.301,189.425 153.301,194.925 154.5,202.5C 155.061,196.443 155.394,190.443 155.5,184.5C 158.5,184.5 161.5,184.5 164.5,184.5C 164.771,186.821 164.104,188.821 162.5,190.5C 164.256,197.968 165.09,205.635 165,213.5C 169.468,214.194 173.968,214.86 178.5,215.5C 179.287,214.758 179.953,213.925 180.5,213C 179.54,209.27 179.207,205.437 179.5,201.5C 180.5,201.5 181.5,201.5 182.5,201.5C 181.687,195.552 180.687,189.885 179.5,184.5C 187.167,184.5 194.833,184.5 202.5,184.5C 203.167,191.167 203.833,191.167 204.5,184.5C 211.921,184.109 219.254,184.609 226.5,186C 234.117,191.84 234.117,198.006 226.5,204.5C 221.976,205.977 217.31,206.977 212.5,207.5C 214.346,211.582 215.013,215.915 214.5,220.5C 211.167,220.5 207.833,220.5 204.5,220.5C 204.924,214.492 204.258,208.659 202.5,203C 202.833,202.667 203.167,202.333 203.5,202C 202.552,201.517 201.552,201.351 200.5,201.5C 200.5,203.167 200.5,204.833 200.5,206.5C 196.154,206.334 191.821,206.501 187.5,207C 188.249,208.734 188.749,210.567 189,212.5C 193.401,213.467 197.901,213.8 202.5,213.5C 202.5,215.833 202.5,218.167 202.5,220.5C 194.833,220.5 187.167,220.5 179.5,220.5C 179.605,215.846 178.271,215.346 175.5,219C 176.167,219.333 176.833,219.667 177.5,220C 170.174,220.5 162.841,220.666 155.5,220.5C 155.665,216.818 155.499,213.152 155,209.5C 151.216,212.607 147.383,215.774 143.5,219C 133.423,222.698 125.089,220.364 118.5,212C 119.428,211.612 120.095,210.945 120.5,210C 119.767,208.234 119.433,206.401 119.5,204.5 Z"/></g>
<g><path style="opacity:0.998" fill="#fbfbfb" d="M 130.5,192.5 C 138.806,190.971 143.472,194.304 144.5,202.5C 145.5,202.5 146.5,202.5 147.5,202.5C 146.696,209.797 142.529,213.463 135,213.5C 133.5,213 132,212.5 130.5,212C 130.833,211.667 131.167,211.333 131.5,211C 128.981,207.631 126.981,203.964 125.5,200C 126.546,197.114 128.213,194.614 130.5,192.5 Z"/></g>
<g><path style="opacity:0.995" fill="#f0f0f0" d="M 214.5,191.5 C 224.38,190.933 226.047,193.766 219.5,200C 217.5,200.667 215.5,200.667 213.5,200C 212.941,199.275 212.608,198.442 212.5,197.5C 213.754,195.666 214.421,193.666 214.5,191.5 Z"/></g>
<g><path style="opacity:0.983" fill="#f5f5f5" d="M 190.5,191.5 C 195.214,191.173 199.88,191.507 204.5,192.5C 207.229,194.367 206.896,195.367 203.5,195.5C 203.5,196.833 203.5,198.167 203.5,199.5C 199.5,199.5 195.5,199.5 191.5,199.5C 191.599,196.763 191.265,194.096 190.5,191.5 Z"/></g>
<g><path style="opacity:1" fill="#090909" d="M 87.5,184.5 C 94.2055,184.243 100.872,184.576 107.5,185.5C 112.635,189.112 114.968,193.945 114.5,200C 112.964,203.036 110.631,205.203 107.5,206.5C 107.709,207.086 108.043,207.586 108.5,208C 107.376,208.249 106.376,208.749 105.5,209.5C 107.078,210.298 108.744,210.798 110.5,211C 111.935,213.943 113.602,216.777 115.5,219.5C 111.893,220.489 108.226,220.823 104.5,220.5C 103.112,215.682 100.779,211.348 97.5,207.5C 96.914,207.709 96.414,208.043 96,208.5C 95.5012,212.486 95.3345,216.486 95.5,220.5C 92.5,220.5 89.5,220.5 86.5,220.5C 85.3764,213.199 85.7098,205.865 87.5,198.5C 86.8333,197.833 86.1667,197.167 85.5,196.5C 86.1677,192.47 86.8344,188.47 87.5,184.5 Z"/></g>
<g><path style="opacity:0.937" fill="#808080" d="M 92.5,208.5 C 94.337,208.639 94.6704,209.306 93.5,210.5C 92.7025,210.043 92.3691,209.376 92.5,208.5 Z"/></g>
<g><path style="opacity:0.993" fill="#fafafa" d="M 95.5,191.5 C 101.622,189.965 104.955,192.298 105.5,198.5C 101.329,201.52 97.6626,201.02 94.5,197C 95.4061,195.301 95.7394,193.467 95.5,191.5 Z"/></g>
<g><path style="opacity:1" fill="#0b0b0b" d="M 280.5,185.5 C 283.64,184.359 286.973,184.192 290.5,185C 292.833,186.243 293.5,187.909 292.5,190C 294.678,191.802 296.511,193.969 298,196.5C 298.49,195.207 298.657,193.873 298.5,192.5C 299.873,192.657 301.207,192.49 302.5,192C 301.755,189.595 302.422,187.428 304.5,185.5C 307.833,184.167 311.167,184.167 314.5,185.5C 310.505,190.67 306.672,196.004 303,201.5C 301.602,203.814 301.435,206.147 302.5,208.5C 299.869,210.005 300.203,210.671 303.5,210.5C 303.5,213.833 303.5,217.167 303.5,220.5C 300.223,220.784 297.057,220.451 294,219.5C 293.71,215.137 293.21,210.804 292.5,206.5C 292.608,205.558 292.941,204.725 293.5,204C 288.528,198.209 284.195,192.043 280.5,185.5 Z"/></g>
<g><path style="opacity:1" fill="#060606" d="M 233.5,184.5 C 236.777,184.216 239.943,184.549 243,185.5C 243.684,187.479 243.184,189.146 241.5,190.5C 242.544,198.447 243.211,206.447 243.5,214.5C 247.776,214.547 251.776,213.547 255.5,211.5C 256.5,208.833 257.5,206.167 258.5,203.5C 260.197,202.636 261.363,201.303 262,199.5C 263.586,194.903 264.919,190.236 266,185.5C 269.333,184.167 272.667,184.167 276,185.5C 279.118,190.239 281.618,195.406 283.5,201C 282.376,201.249 281.376,201.749 280.5,202.5C 282.724,205.153 284.391,208.153 285.5,211.5C 284.5,212.167 283.5,212.833 282.5,213.5C 282.709,214.086 283.043,214.586 283.5,215C 281.833,215.333 280.167,215.667 278.5,216C 281.482,216.498 284.482,216.665 287.5,216.5C 287.33,217.822 287.663,218.989 288.5,220C 285.167,220.667 281.833,220.667 278.5,220C 277.761,216.927 275.928,214.76 273,213.5C 270.81,214.051 268.477,214.051 266,213.5C 264.5,213.833 263,214.167 261.5,214.5C 263.636,215.852 263.97,217.518 262.5,219.5C 253.19,220.498 243.857,220.832 234.5,220.5C 233.908,208.409 233.574,196.409 233.5,184.5 Z"/></g>
<g><path style="opacity:0.978" fill="#fafafa" d="M 271.5,196.5 C 272.947,197.622 273.947,199.122 274.5,201C 273.692,201.308 273.025,201.808 272.5,202.5C 273.167,203.833 273.833,205.167 274.5,206.5C 271.833,207.833 269.167,207.833 266.5,206.5C 267.747,204.958 267.747,203.458 266.5,202C 270.095,201.878 271.761,200.044 271.5,196.5 Z"/></g>
<g><path style="opacity:1" fill="#575757" d="M 253.5,175.5 C 254.289,175.783 254.956,176.283 255.5,177C 248.321,177.821 241.321,177.655 234.5,176.5C 241.022,176.823 247.355,176.49 253.5,175.5 Z"/></g>
<g><path style="opacity:1" fill="#555555" d="M 179.5,174.5 C 180.404,175.209 180.737,176.209 180.5,177.5C 176.958,177.813 173.625,177.479 170.5,176.5C 174.012,177.055 177.012,176.388 179.5,174.5 Z"/></g>
<g><path style="opacity:1" fill="#0b0b0b" d="M 253.5,175.5 C 247.355,176.49 241.022,176.823 234.5,176.5C 229.913,177.378 226.58,175.878 224.5,172C 220.826,171.984 217.326,171.151 214,169.5C 212.5,169.833 211,170.167 209.5,170.5C 211.636,171.852 211.97,173.518 210.5,175.5C 200.856,176.498 191.19,176.832 181.5,176.5C 182.062,170.645 182.062,164.645 181.5,158.5C 182.5,158.5 183.5,158.5 184.5,158.5C 183.668,152.212 182.668,146.212 181.5,140.5C 189.167,140.5 196.833,140.5 204.5,140.5C 204.083,143.079 204.75,145.246 206.5,147C 201.798,147.172 197.132,147.672 192.5,148.5C 193.374,150.747 193.708,153.08 193.5,155.5C 197.5,155.5 201.5,155.5 205.5,155.5C 205.881,157.942 205.214,158.609 203.5,157.5C 202.548,159.045 202.215,160.712 202.5,162.5C 198.154,162.334 193.821,162.501 189.5,163C 190.009,165.57 191.009,167.903 192.5,170C 195.899,170.546 199.232,170.213 202.5,169C 204.122,165.973 205.455,162.806 206.5,159.5C 207.242,158.713 208.075,158.047 209,157.5C 211.27,152.356 212.937,147.022 214,141.5C 217.073,140.383 220.24,140.216 223.5,141C 227.08,145.994 229.746,151.494 231.5,157.5C 230.603,157.669 229.603,158.002 228.5,158.5C 229.242,159.287 230.075,159.953 231,160.5C 231.619,163.032 232.619,165.365 234,167.5C 233.106,163.189 232.606,158.689 232.5,154C 232.285,150.413 232.952,147.079 234.5,144C 234.265,143.127 233.931,142.293 233.5,141.5C 236.106,140.348 238.773,140.182 241.5,141C 243.037,142.11 243.703,143.61 243.5,145.5C 242.325,145.281 241.325,145.614 240.5,146.5C 242.469,154.289 243.469,162.289 243.5,170.5C 247.5,170.5 251.5,170.5 255.5,170.5C 255.635,172.554 254.968,174.221 253.5,175.5 Z"/></g>
<g><path style="opacity:0.82" fill="#919191" d="M 227.5,171.5 C 229.265,172.461 231.265,172.795 233.5,172.5C 231.307,173.797 228.973,173.797 226.5,172.5C 226.624,171.893 226.957,171.56 227.5,171.5 Z"/></g>
<g><path style="opacity:0.855" fill="#b8b8b8" d="M 199.5,171.5 C 201.337,171.639 201.67,172.306 200.5,173.5C 199.702,173.043 199.369,172.376 199.5,171.5 Z"/></g>
<g><path style="opacity:0.958" fill="#f4f4f4" d="M 233.5,172.5 C 231.265,172.795 229.265,172.461 227.5,171.5C 228.833,171.5 230.167,171.5 231.5,171.5C 231.494,168.452 232.494,167.952 234.5,170C 233.748,170.671 233.414,171.504 233.5,172.5 Z"/></g>
<g><path style="opacity:0.989" fill="#eeeeee" d="M 219.5,152.5 C 221.043,153.736 222.043,155.402 222.5,157.5C 220.625,158.969 220.625,160.802 222.5,163C 219.773,163.818 217.106,163.652 214.5,162.5C 215.833,161.167 215.833,159.833 214.5,158.5C 217.98,157.943 219.647,155.943 219.5,152.5 Z"/></g>
<g><path style="opacity:1" fill="#0a0a0a" d="M 179.5,174.5 C 177.012,176.388 174.012,177.055 170.5,176.5C 168.208,171.987 165.541,167.654 162.5,163.5C 161.914,163.709 161.414,164.043 161,164.5C 160.501,168.821 160.334,173.154 160.5,177.5C 157.5,177.5 154.5,177.5 151.5,177.5C 151.793,173.563 151.46,169.73 150.5,166C 151,165.5 151.5,165 152,164.5C 152.212,161.242 152.712,158.076 153.5,155C 152.328,154.581 151.328,153.915 150.5,153C 151.293,149.589 151.793,146.089 152,142.5C 158.946,140.16 166.113,139.993 173.5,142C 177.638,145.73 179.638,150.397 179.5,156C 177.964,159.036 175.631,161.203 172.5,162.5C 173.813,164.518 173.147,165.685 170.5,166C 172.218,166.346 173.885,166.846 175.5,167.5C 176.588,170.014 177.922,172.348 179.5,174.5 Z"/></g>
<g><path style="opacity:1" fill="#f4f4f4" d="M 160.5,147.5 C 167.173,146.382 170.34,149.049 170,155.5C 167.36,157.524 164.527,157.857 161.5,156.5C 161.709,155.914 162.043,155.414 162.5,155C 161.328,154.581 160.328,153.915 159.5,153C 160.406,151.301 160.739,149.467 160.5,147.5 Z"/></g>
<g><path style="opacity:0.992" fill="#f9f9f9" d="M 149.5,54.5 C 150.496,54.4142 151.329,54.7476 152,55.5C 152.735,57.8713 153.568,60.2046 154.5,62.5C 151.956,64.0186 149.289,65.352 146.5,66.5C 144.639,64.1123 143.306,61.4456 142.5,58.5C 144.765,56.8726 147.099,55.5392 149.5,54.5 Z"/></g>
<g><path style="opacity:0.993" fill="#f8f8f8" d="M 239.5,52.5 C 243.058,52.4052 246.058,53.5718 248.5,56C 247.521,58.4333 246.855,60.9333 246.5,63.5C 237.804,63.7665 235.471,60.0998 239.5,52.5 Z"/></g>
<g><path style="opacity:0.994" fill="#f8f8f8" d="M 164.5,49.5 C 166.792,49.2436 168.959,49.5769 171,50.5C 171.287,52.8907 171.787,55.2241 172.5,57.5C 169.674,58.5796 166.841,59.5796 164,60.5C 162.539,57.3214 161.705,53.9881 161.5,50.5C 162.791,50.7373 163.791,50.404 164.5,49.5 Z"/></g>
<g><path style="opacity:0.996" fill="#f9f9f9" d="M 219.5,47.5 C 222.833,48.1667 226.167,48.8333 229.5,49.5C 229.148,52.4284 228.482,55.2617 227.5,58C 224.843,58.1747 222.176,58.0081 219.5,57.5C 219.5,54.1667 219.5,50.8333 219.5,47.5 Z"/></g>
<g><path style="opacity:1" fill="#f6f6f6" d="M 200.5,46.5 C 203.833,46.5 207.167,46.5 210.5,46.5C 209.793,49.7861 209.46,53.1194 209.5,56.5C 206.482,56.2962 203.482,55.9629 200.5,55.5C 200.5,52.5 200.5,49.5 200.5,46.5 Z"/></g>
<g><path style="opacity:0.99" fill="#fafafa" d="M 180.5,46.5 C 183.833,46.5 187.167,46.5 190.5,46.5C 190.5,49.8333 190.5,53.1667 190.5,56.5C 187.5,56.5 184.5,56.5 181.5,56.5C 181.384,53.1401 181.051,49.8067 180.5,46.5 Z"/></g>
<g><path style="opacity:0.979" fill="#fdfdfd" d="M 176.5,321.5 C 179.941,321.301 183.274,321.801 186.5,323C 185.556,325.719 185.223,328.552 185.5,331.5C 182.14,331.384 178.807,331.051 175.5,330.5C 175.963,327.518 176.296,324.518 176.5,321.5 Z"/></g>
<g><path style="opacity:0.973" fill="#fcfcfc" d="M 221.5,320.5 C 223.975,323.251 224.975,326.584 224.5,330.5C 221.14,330.616 217.807,330.949 214.5,331.5C 214.5,328.167 214.5,324.833 214.5,321.5C 217.059,321.802 219.393,321.468 221.5,320.5 Z"/></g>
<g><path style="opacity:0.968" fill="#fcfcfc" d="M 195.5,322.5 C 198.5,322.5 201.5,322.5 204.5,322.5C 204.833,325.833 205.167,329.167 205.5,332.5C 202.167,332.5 198.833,332.5 195.5,332.5C 195.5,329.167 195.5,325.833 195.5,322.5 Z"/></g>
</svg>
