<?xml version="1.0" encoding="UTF-8"?>
<!DOCTYPE svg PUBLIC "-//W3C//DTD SVG 1.1//EN" "http://www.w3.org/Graphics/SVG/1.1/DTD/svg11.dtd">
<svg xmlns="http://www.w3.org/2000/svg" version="1.1" width="400px" height="400px" style="shape-rendering:geometricPrecision; text-rendering:geometricPrecision; image-rendering:optimizeQuality; fill-rule:evenodd; clip-rule:evenodd" xmlns:xlink="http://www.w3.org/1999/xlink">
<g><path style="opacity:0.999" fill="#141414" d="M 196.5,16.5 C 203.728,17.2813 209.728,20.4479 214.5,26C 216.513,27.2572 218.679,28.0905 221,28.5C 227.025,27.2693 232.859,25.436 238.5,23C 240.833,22.3333 243.167,22.3333 245.5,23C 250.811,27.9793 255.811,33.3126 260.5,39C 262.355,39.4221 264.189,39.9221 266,40.5C 272.847,38.6976 279.681,38.5309 286.5,40C 290.684,46.8712 294.684,53.8712 298.5,61C 306.198,62.8938 313.865,64.8938 321.5,67C 322.701,67.9025 323.535,69.0692 324,70.5C 325.16,77.6368 326.827,84.6368 329,91.5C 333.693,94.9293 338.859,97.4293 344.5,99C 346.609,100.141 348.442,101.641 350,103.5C 350.331,111.516 350.331,119.516 350,127.5C 355.624,133.158 361.291,138.825 367,144.5C 367.667,146.833 367.667,149.167 367,151.5C 364.728,156.872 362.894,162.372 361.5,168C 362.302,173.437 364.802,177.937 369,181.5C 370.973,184.464 372.473,187.631 373.5,191C 371.187,196.656 368.02,201.823 364,206.5C 362.596,208.639 361.763,210.972 361.5,213.5C 362.835,219.337 364.668,225.004 367,230.5C 367.667,232.5 367.667,234.5 367,236.5C 362.322,242.177 356.989,247.177 351,251.5C 350.094,253.744 349.594,256.077 349.5,258.5C 350.488,264.815 350.654,271.148 350,277.5C 349.626,278.416 349.126,279.25 348.5,280C 341.729,283.133 335.229,286.633 329,290.5C 326.894,298.135 324.894,305.802 323,313.5C 321.581,314.46 320.081,315.293 318.5,316C 312.11,317.056 305.777,318.389 299.5,320C 295.429,325.306 292.263,331.139 290,337.5C 289.052,339.57 287.552,341.07 285.5,342C 277.496,342.102 269.496,342.102 261.5,342C 255.833,347.667 250.167,353.333 244.5,359C 241.442,359.458 238.442,359.124 235.5,358C 229.928,354.583 223.928,353.25 217.5,354C 211.589,358.245 205.422,362.078 199,365.5C 192.262,362.55 186.096,358.716 180.5,354C 177.833,353.333 175.167,353.333 172.5,354C 167.135,356.267 161.635,358.101 156,359.5C 154.373,359.375 152.873,358.875 151.5,358C 146.943,353.946 142.943,349.446 139.5,344.5C 138.335,343.416 137.002,342.583 135.5,342C 127.84,342.153 120.173,342.153 112.5,342C 111.584,341.626 110.75,341.126 110,340.5C 106.878,333.802 103.378,327.302 99.5,321C 91.4754,318.758 83.4754,316.425 75.5,314C 72.9673,306.292 70.8006,298.459 69,290.5C 62,286.5 55,282.5 48,278.5C 46.693,271.525 46.8597,264.525 48.5,257.5C 48.1012,255.803 47.6012,254.137 47,252.5C 41.3874,247.377 36.0541,242.044 31,236.5C 31.1371,229.905 32.6371,223.572 35.5,217.5C 36.3958,215.199 36.5625,212.866 36,210.5C 33.7399,205.644 30.7399,201.311 27,197.5C 23.6291,192.32 23.9624,187.32 28,182.5C 32.2602,178.476 35.0935,173.643 36.5,168C 35.0664,162.366 33.233,156.866 31,151.5C 30.3333,149.167 30.3333,146.833 31,144.5C 35.9793,139.189 41.3126,134.189 47,129.5C 47.704,127.722 48.204,125.888 48.5,124C 46.842,117.132 46.6754,110.299 48,103.5C 53.0731,99.0234 58.9065,95.8568 65.5,94C 66.6853,92.647 68.0186,91.4803 69.5,90.5C 71.2132,83.5574 72.7132,76.5574 74,69.5C 75.6374,67.1898 77.804,65.6898 80.5,65C 86.5963,64.2489 92.5963,63.0822 98.5,61.5C 102.363,56.7681 105.197,51.4347 107,45.5C 109.107,40.7274 112.774,38.3941 118,38.5C 122.696,39.0215 127.363,39.6882 132,40.5C 133.811,39.9221 135.645,39.4221 137.5,39C 142.189,33.3126 147.189,27.9793 152.5,23C 159.834,22.9947 166.834,24.6613 173.5,28C 175.5,28.6667 177.5,28.6667 179.5,28C 185.365,24.2736 191.032,20.4403 196.5,16.5 Z M 335.5,263.5 C 335.675,265.621 335.341,267.621 334.5,269.5C 332.559,269.869 330.725,270.536 329,271.5C 328.502,274.482 328.335,277.482 328.5,280.5C 321.824,280.402 318.99,283.736 320,290.5C 317.282,291.347 314.616,292.347 312,293.5C 312.429,300.152 309.263,303.152 302.5,302.5C 302.598,309.176 299.264,312.01 292.5,311C 291.331,313.007 290.665,315.173 290.5,317.5C 287.39,318.088 284.39,318.755 281.5,319.5C 279.707,321.426 278.707,323.759 278.5,326.5C 272.488,323.809 268.488,325.475 266.5,331.5C 263.578,331.899 260.578,332.066 257.5,332C 255.76,334.035 253.926,335.869 252,337.5C 249.563,336.346 247.063,335.846 244.5,336C 242.091,341.803 238.257,342.97 233,339.5C 230.667,341.167 228.333,342.833 226,344.5C 223.773,343.637 221.607,342.637 219.5,341.5C 216.888,342.779 214.555,344.445 212.5,346.5C 210.167,345.167 207.833,343.833 205.5,342.5C 203.476,344.358 201.309,346.025 199,347.5C 196.691,346.025 194.524,344.358 192.5,342.5C 190.167,343.833 187.833,345.167 185.5,346.5C 183.366,344.58 181.032,342.913 178.5,341.5C 176.393,342.637 174.227,343.637 172,344.5C 169.667,342.833 167.333,341.167 165,339.5C 163,340.167 161,340.833 159,341.5C 156.342,340.008 154.176,338.008 152.5,335.5C 146.18,339.284 142.18,337.617 140.5,330.5C 168.014,341.038 196.347,344.038 225.5,339.5C 290.018,324.816 330.852,285.483 348,221.5C 358.898,151.49 335.065,96.9903 276.5,58C 257.884,47.1834 237.884,40.6834 216.5,38.5C 200.398,36.7657 184.398,37.4324 168.5,40.5C 119.334,51.5055 83.5009,79.5055 61,124.5C 54.5018,138.161 50.3351,152.494 48.5,167.5C 47.6561,171.099 47.3227,174.766 47.5,178.5C 46.5128,183.305 46.1795,188.305 46.5,193.5C 45.5,193.5 44.5,193.5 43.5,193.5C 42.3862,192.115 41.3862,190.615 40.5,189C 42.5571,187.281 44.2237,185.281 45.5,183C 44.3847,180.384 43.0514,177.884 41.5,175.5C 43.5547,173.445 45.2213,171.112 46.5,168.5C 45.3632,166.393 44.3632,164.227 43.5,162C 45.5757,159.93 47.2424,157.596 48.5,155C 47.8333,153 47.1667,151 46.5,149C 48.2387,146.622 50.2387,144.455 52.5,142.5C 51.7569,140.362 51.0903,138.196 50.5,136C 52.5186,133.649 54.8519,131.649 57.5,130C 56.6839,128.077 56.0172,126.077 55.5,124C 57.2895,121.836 59.4562,120.002 62,118.5C 62.4217,115.764 62.4217,113.098 62,110.5C 64.0223,109.214 66.1889,108.214 68.5,107.5C 69.3214,104.553 69.8214,101.553 70,98.5C 72.3333,97.5 74.6667,96.5 77,95.5C 77.4974,92.854 77.6641,90.1873 77.5,87.5C 84.7392,87.9291 87.7392,84.5958 86.5,77.5C 89.4824,77.0371 92.4824,76.7038 95.5,76.5C 95.9926,74.1944 96.3259,71.861 96.5,69.5C 97.9952,69.0113 99.3285,68.3446 100.5,67.5C 102.288,67.7852 103.955,67.4519 105.5,66.5C 106.601,64.3584 107.601,62.1917 108.5,60C 114.238,61.0358 117.905,58.8691 119.5,53.5C 122.034,52.2234 124.534,52.2234 127,53.5C 128.87,51.5947 130.37,49.4281 131.5,47C 134.54,46.6799 137.54,46.6799 140.5,47C 141.975,44.6908 143.642,42.5241 145.5,40.5C 148.029,41.9597 150.696,42.4597 153.5,42C 154.826,39.8416 156.493,38.0082 158.5,36.5C 160.751,37.6948 163.085,38.6948 165.5,39.5C 167.861,37.8061 169.861,35.8061 171.5,33.5C 176.811,38.045 181.311,37.3783 185,31.5C 187.086,33.2495 189.419,34.5828 192,35.5C 194.333,34.1667 196.667,32.8333 199,31.5C 201.076,33.2331 203.409,34.5665 206,35.5C 207.961,34.1034 210.128,33.1034 212.5,32.5C 214.833,33.8333 217.167,35.1667 219.5,36.5C 221.857,35.9049 224.023,34.9049 226,33.5C 228.016,35.684 230.183,37.684 232.5,39.5C 234.751,38.3052 237.085,37.3052 239.5,36.5C 241.04,38.3868 242.707,40.2201 244.5,42C 247.304,42.4597 249.971,41.9597 252.5,40.5C 254.288,42.5765 255.954,44.7432 257.5,47C 259.476,47.1878 261.476,47.0212 263.5,46.5C 264.5,46.8333 265.5,47.1667 266.5,47.5C 267.423,49.9242 268.923,51.9242 271,53.5C 276.894,51.2279 280.061,53.2279 280.5,59.5C 283.518,59.3354 286.518,59.502 289.5,60C 290.5,62.3333 291.5,64.6667 292.5,67C 295.506,67.3324 298.34,68.1657 301,69.5C 301.662,71.8127 302.162,74.146 302.5,76.5C 305.271,76.4207 307.937,76.9207 310.5,78C 311.12,80.4728 311.786,82.9728 312.5,85.5C 315.096,86.4822 317.762,87.1489 320.5,87.5C 320.336,90.1873 320.503,92.854 321,95.5C 323.333,96.5 325.667,97.5 328,98.5C 328.179,101.553 328.679,104.553 329.5,107.5C 331.167,108.167 332.833,108.833 334.5,109.5C 335.321,112.447 335.821,115.447 336,118.5C 338.296,120.057 340.462,121.724 342.5,123.5C 341.894,125.709 341.227,127.876 340.5,130C 343.052,131.771 345.385,133.771 347.5,136C 346.833,138 346.167,140 345.5,142C 347.136,144.637 349.136,146.97 351.5,149C 350.732,151.136 350.066,153.303 349.5,155.5C 350.584,158.088 352.251,160.255 354.5,162C 353.5,164.333 352.5,166.667 351.5,169C 352.961,171.298 354.628,173.465 356.5,175.5C 355.167,177.833 353.833,180.167 352.5,182.5C 354.102,184.708 355.436,187.041 356.5,189.5C 355.402,191.775 354.068,193.942 352.5,196C 353.833,198.333 355.167,200.667 356.5,203C 354.819,205.344 353.152,207.677 351.5,210C 352.756,211.845 353.756,213.845 354.5,216C 352.521,218.33 350.521,220.663 348.5,223C 349.786,225.022 350.786,227.189 351.5,229.5C 349.471,231.858 347.471,234.192 345.5,236.5C 346.648,238.761 347.148,241.095 347,243.5C 344.555,244.977 342.388,246.81 340.5,249C 341.227,251.124 341.894,253.291 342.5,255.5C 340.5,256.833 338.5,258.167 336.5,259.5C 335.571,260.689 335.238,262.022 335.5,263.5 Z M 148.5,48.5 C 149.239,48.369 149.906,48.5357 150.5,49C 149.695,50.1127 149.028,51.2794 148.5,52.5C 143.383,54.2259 138.383,56.2259 133.5,58.5C 133.5,57.1667 133.5,55.8333 133.5,54.5C 138.505,52.4987 143.505,50.4987 148.5,48.5 Z M 247.5,48.5 C 250.823,49.4925 254.156,50.4925 257.5,51.5C 257.5,53.5 256.5,54.5 254.5,54.5C 254.158,53.6618 253.492,53.3284 252.5,53.5C 251.188,51.5212 249.521,49.8545 247.5,48.5 Z M 258.5,59.5 C 261.301,60.7347 263.968,62.2347 266.5,64C 265.695,65.1127 265.028,66.2794 264.5,67.5C 262.856,67.7135 261.356,67.3802 260,66.5C 259.56,64.1341 259.06,61.8008 258.5,59.5 Z M 133.5,62.5 C 133.5,62.8333 133.5,63.1667 133.5,63.5C 132.776,67.9914 130.109,69.658 125.5,68.5C 125.414,67.5041 125.748,66.6708 126.5,66C 128.86,64.8201 131.193,63.6534 133.5,62.5 Z M 274.5,69.5 C 277.714,70.4404 280.714,71.9404 283.5,74C 281.667,76.5 279.833,79 278,81.5C 275.926,79.5479 273.759,77.7146 271.5,76C 272.914,74.0065 273.914,71.8398 274.5,69.5 Z M 290.5,81.5 C 293.787,82.264 296.454,84.0973 298.5,87C 296.333,89.1667 294.167,91.3333 292,93.5C 290.663,90.9979 288.829,88.9979 286.5,87.5C 287.467,85.2099 288.8,83.2099 290.5,81.5 Z M 305.5,94.5 C 307.719,96.5755 309.719,98.9088 311.5,101.5C 309.489,103.341 307.322,105.008 305,106.5C 303.005,104.671 301.172,102.671 299.5,100.5C 301.827,98.8394 303.827,96.8394 305.5,94.5 Z M 316.5,110.5 C 319.163,112.089 321.163,114.422 322.5,117.5C 320.381,119.4 318.047,121.066 315.5,122.5C 313.461,120.258 311.795,117.758 310.5,115C 312.747,113.723 314.747,112.223 316.5,110.5 Z M 64.5,123.5 C 66.1765,124.183 66.8432,125.517 66.5,127.5C 65.3951,128.6 64.0618,129.267 62.5,129.5C 63.1667,127.5 63.8333,125.5 64.5,123.5 Z M 326.5,127.5 C 327.376,127.369 328.043,127.702 328.5,128.5C 329.214,130.811 330.214,132.978 331.5,135C 328.928,137.287 325.928,138.453 322.5,138.5C 322.451,135.901 321.451,133.734 319.5,132C 321.898,130.476 324.231,128.976 326.5,127.5 Z M 64.5,131.5 C 64.5,131.833 64.5,132.167 64.5,132.5C 62.9382,132.733 61.6049,133.4 60.5,134.5C 60.5,133.833 60.5,133.167 60.5,132.5C 61.7079,131.766 63.0413,131.433 64.5,131.5 Z M 58.5,136.5 C 59.1667,138.167 59.8333,139.833 60.5,141.5C 58.0261,150.395 56.0261,159.395 54.5,168.5C 53.2311,170.084 52.2311,171.917 51.5,174C 52.0926,182.321 52.7593,190.488 53.5,198.5C 54.9237,224.771 62.9237,248.771 77.5,270.5C 76.8902,271.391 76.5569,272.391 76.5,273.5C 63.6066,256.691 55.4399,237.691 52,216.5C 51.1914,210.683 50.358,205.017 49.5,199.5C 49.5,192.167 49.5,184.833 49.5,177.5C 51.0754,163.633 54.0754,149.966 58.5,136.5 Z M 339.5,137.5 C 340.038,139.117 340.371,140.784 340.5,142.5C 339.5,142.5 338.5,142.5 337.5,142.5C 336.89,141.609 336.557,140.609 336.5,139.5C 336.877,137.176 337.877,136.509 339.5,137.5 Z M 327.5,150.5 C 327.782,149.222 328.449,148.222 329.5,147.5C 331.54,146.481 333.54,146.481 335.5,147.5C 339.083,154.611 336.75,157.611 328.5,156.5C 328.483,154.435 328.15,152.435 327.5,150.5 Z M 342.5,147.5 C 351.464,179.66 350.131,211.327 338.5,242.5C 336.821,242.715 335.821,242.048 335.5,240.5C 343.877,218.677 346.71,196.01 344,172.5C 343.047,165.451 341.881,158.451 340.5,151.5C 340.989,150.005 341.655,148.671 342.5,147.5 Z M 44.5,198.5 C 45.1667,199.833 46.1667,200.833 47.5,201.5C 47.3424,204.902 47.6758,208.236 48.5,211.5C 52.5843,239.987 63.9176,264.987 82.5,286.5C 92.6449,299.403 104.645,310.236 118.5,319C 126.084,322.623 133.417,326.456 140.5,330.5C 138.246,331.315 135.913,331.981 133.5,332.5C 131.251,330.863 129.585,328.696 128.5,326C 125.386,325.877 122.386,325.71 119.5,325.5C 118.786,323.189 117.786,321.022 116.5,319C 113.518,318.502 110.518,318.335 107.5,318.5C 107.244,316.063 106.577,313.729 105.5,311.5C 102.634,310.792 99.8003,310.125 97,309.5C 96.338,307.187 95.838,304.854 95.5,302.5C 92.5716,302.148 89.7383,301.482 87,300.5C 86.7132,298.109 86.2132,295.776 85.5,293.5C 83.077,292.271 80.577,291.271 78,290.5C 77.8184,287.774 77.3184,285.107 76.5,282.5C 74.5,281.833 72.5,281.167 70.5,280.5C 69.8333,277.5 69.1667,274.5 68.5,271.5C 66.0038,270.42 63.6705,269.086 61.5,267.5C 62.7378,264.834 62.7378,262.168 61.5,259.5C 55.3218,257.751 53.9885,254.251 57.5,249C 54.8678,246.873 52.5345,244.54 50.5,242C 51.6542,239.563 52.1542,237.063 52,234.5C 49.6656,233.33 47.8323,231.663 46.5,229.5C 47.1667,227.5 47.8333,225.5 48.5,223.5C 47.2556,220.913 45.589,218.58 43.5,216.5C 44.3052,214.085 45.3052,211.751 46.5,209.5C 44.6278,207.465 42.9611,205.298 41.5,203C 42.3479,201.334 43.3479,199.834 44.5,198.5 Z M 66.5,134.5 C 69.1667,135.167 71.8333,135.833 74.5,136.5C 74.2634,139.647 73.4301,142.647 72,145.5C 69.6667,144.5 67.3333,143.5 65,142.5C 64.9552,139.78 65.4552,137.114 66.5,134.5 Z M 75.5,116.5 C 78.6863,117.356 81.3529,119.023 83.5,121.5C 82,123.833 80.5,126.167 79,128.5C 76.5184,127.002 74.0184,125.502 71.5,124C 72.9732,121.552 74.3065,119.052 75.5,116.5 Z M 86.5,100.5 C 94.7038,102.947 95.5372,106.947 89,112.5C 86.5227,111.015 84.356,109.181 82.5,107C 83.7125,104.738 85.0459,102.571 86.5,100.5 Z M 100.5,85.5 C 102.812,87.1455 104.812,89.1455 106.5,91.5C 104.833,93.8333 102.833,95.8333 100.5,97.5C 98.3501,95.8509 96.3501,94.0176 94.5,92C 96.7059,89.9633 98.7059,87.7966 100.5,85.5 Z M 114.5,73.5 C 117.354,74.9729 119.688,77.1395 121.5,80C 119.301,81.6971 116.968,83.1971 114.5,84.5C 112.11,83.1092 110.443,81.1092 109.5,78.5C 111.006,76.5986 112.673,74.9319 114.5,73.5 Z M 324.5,245.5 C 326.423,245.795 328.09,246.628 329.5,248C 328.206,250.087 327.039,252.254 326,254.5C 325.23,255.598 324.397,255.598 323.5,254.5C 322.986,252.634 322.32,250.8 321.5,249C 321.707,247.05 322.707,245.884 324.5,245.5 Z M 319.5,264.5 C 318.657,267.516 317.157,270.183 315,272.5C 313.729,271.117 312.229,270.117 310.5,269.5C 310.511,267.983 311.177,266.816 312.5,266C 314.866,265.56 317.199,265.06 319.5,264.5 Z M 76.5,273.5 C 77.7046,275.138 79.0379,275.471 80.5,274.5C 83.8333,279.167 87.1667,283.833 90.5,288.5C 88.0532,288.385 86.0532,287.385 84.5,285.5C 81.3269,281.815 78.6602,277.815 76.5,273.5 Z M 314.5,278.5 C 315.906,278.973 316.573,279.973 316.5,281.5C 312.205,287.463 307.205,292.796 301.5,297.5C 300.5,297.167 299.833,296.5 299.5,295.5C 304.843,290.156 309.843,284.489 314.5,278.5 Z M 288.5,288.5 C 290.266,290.771 292.266,292.937 294.5,295C 292.615,297.222 290.449,299.056 288,300.5C 286.005,298.671 284.172,296.671 282.5,294.5C 284.827,292.839 286.827,290.839 288.5,288.5 Z M 110.5,290.5 C 117.899,293.551 118.399,297.551 112,302.5C 109.357,301.024 107.19,299.024 105.5,296.5C 107.19,294.481 108.856,292.481 110.5,290.5 Z M 273.5,300.5 C 280.582,305.232 280.082,308.899 272,311.5C 269.948,309.944 268.448,307.944 267.5,305.5C 269.162,303.348 271.162,301.682 273.5,300.5 Z M 125.5,301.5 C 128.117,302.786 130.45,304.453 132.5,306.5C 131.197,308.968 129.697,311.301 128,313.5C 125.749,311.623 123.249,310.123 120.5,309C 122.301,306.557 123.968,304.057 125.5,301.5 Z M 257.5,309.5 C 259.059,311.608 260.392,313.941 261.5,316.5C 259.295,318.526 256.795,320.192 254,321.5C 252.558,318.95 251.392,316.284 250.5,313.5C 252.765,311.873 255.099,310.539 257.5,309.5 Z M 141.5,310.5 C 144.423,311.295 147.09,312.628 149.5,314.5C 148.617,317.325 147.45,319.992 146,322.5C 143.765,320.798 141.265,319.798 138.5,319.5C 139.213,316.406 140.213,313.406 141.5,310.5 Z M 241.5,317.5 C 241.756,319.937 242.423,322.271 243.5,324.5C 241.125,325.66 238.792,326.66 236.5,327.5C 235.022,326.552 234.022,325.219 233.5,323.5C 233.5,321.833 233.5,320.167 233.5,318.5C 235.827,318.335 237.993,317.669 240,316.5C 240.383,317.056 240.883,317.389 241.5,317.5 Z M 166.5,319.5 C 166.954,321.259 166.954,323.259 166.5,325.5C 165.533,326.806 164.199,327.473 162.5,327.5C 160.146,327.09 158.146,326.09 156.5,324.5C 157.577,322.271 158.244,319.937 158.5,317.5C 161.327,317.584 163.994,318.25 166.5,319.5 Z M 185.5,330.5 C 183.043,330.792 180.376,330.792 177.5,330.5C 176.624,330.631 175.957,330.298 175.5,329.5C 176.213,327.224 176.713,324.891 177,322.5C 179.718,321.987 182.551,321.987 185.5,322.5C 185.5,325.167 185.5,327.833 185.5,330.5 Z M 217.5,321.5 C 218.5,321.5 219.5,321.5 220.5,321.5C 221.778,321.782 222.778,322.449 223.5,323.5C 223.357,325.262 223.691,326.929 224.5,328.5C 223.757,329.182 223.091,329.849 222.5,330.5C 219.467,330.868 216.8,330.202 214.5,328.5C 214.5,327.167 214.5,325.833 214.5,324.5C 215.1,323.1 216.1,322.1 217.5,321.5 Z M 256.5,323.5 C 256.835,324.664 256.835,325.997 256.5,327.5C 253.167,328.5 249.833,329.5 246.5,330.5C 245.596,329.791 245.263,328.791 245.5,327.5C 249.279,326.442 252.946,325.109 256.5,323.5 Z M 160.5,330.5 C 165.782,331.756 171.115,332.756 176.5,333.5C 176.577,334.75 177.244,335.583 178.5,336C 177.207,336.49 175.873,336.657 174.5,336.5C 168.859,335.372 163.192,334.372 157.5,333.5C 158.1,332.1 159.1,331.1 160.5,330.5 Z M 235.5,330.5 C 238.518,330.335 241.518,330.502 244.5,331C 243.944,331.383 243.611,331.883 243.5,332.5C 235.386,334.188 227.386,335.855 219.5,337.5C 215.466,337.505 211.466,337.838 207.5,338.5C 202.156,338.666 196.823,338.499 191.5,338C 199.931,337.405 208.264,336.238 216.5,334.5C 218.761,336.173 220.428,335.84 221.5,333.5C 226.364,333.321 231.03,332.321 235.5,330.5 Z M 204.5,332.5 C 201.5,332.5 198.5,332.5 195.5,332.5C 195.5,329.5 195.5,326.5 195.5,323.5C 198.5,323.5 201.5,323.5 204.5,323.5C 204.5,326.5 204.5,329.5 204.5,332.5 Z"/></g>
<g><path style="opacity:0.962" fill="#dfdfdf" d="M 209.5,39.5 C 221.977,41.0328 234.311,43.6994 246.5,47.5C 246.5,48.1667 246.833,48.5 247.5,48.5C 249.521,49.8545 251.188,51.5212 252.5,53.5C 242.09,49.8078 231.423,47.1412 220.5,45.5C 195.88,41.7449 171.88,44.0782 148.5,52.5C 149.028,51.2794 149.695,50.1127 150.5,49C 149.906,48.5357 149.239,48.369 148.5,48.5C 154.46,46.3749 160.46,44.3749 166.5,42.5C 180.71,39.9844 195.043,38.9844 209.5,39.5 Z"/></g>
<g><path style="opacity:1" fill="#1c1c1c" d="M 216.5,38.5 C 214.393,39.4682 212.059,39.8016 209.5,39.5C 195.043,38.9844 180.71,39.9844 166.5,42.5C 166.062,42.5654 165.728,42.3988 165.5,42C 166.737,41.7679 167.737,41.2679 168.5,40.5C 184.398,37.4324 200.398,36.7657 216.5,38.5 Z"/></g>
<g><path style="opacity:1" fill="#121212" d="M 220.5,45.5 C 220.167,46.1667 219.833,46.8333 219.5,47.5C 219.5,49.5 219.5,51.5 219.5,53.5C 218.566,54.5676 218.232,55.901 218.5,57.5C 216.5,57.5 214.5,57.5 212.5,57.5C 200.134,57.2481 187.801,57.7481 175.5,59C 163.444,61.741 151.778,65.5743 140.5,70.5C 139.5,70.5 138.5,70.5 137.5,70.5C 136.905,67.6829 135.572,65.3495 133.5,63.5C 133.5,63.1667 133.5,62.8333 133.5,62.5C 132.833,61.8333 132.167,61.1667 131.5,60.5C 132.167,59.8333 132.833,59.1667 133.5,58.5C 138.383,56.2259 143.383,54.2259 148.5,52.5C 171.88,44.0782 195.88,41.7449 220.5,45.5 Z"/></g>
<g><path style="opacity:1" fill="#464646" d="M 200.5,46.5 C 203.625,45.5206 206.958,45.1872 210.5,45.5C 210.795,47.7354 210.461,49.7354 209.5,51.5C 209.5,49.8333 209.5,48.1667 209.5,46.5C 206.5,46.5 203.5,46.5 200.5,46.5 Z"/></g>
<g><path style="opacity:1" fill="#fbfbfb" d="M 200.5,46.5 C 203.5,46.5 206.5,46.5 209.5,46.5C 209.5,48.1667 209.5,49.8333 209.5,51.5C 209.5,52.8333 209.5,54.1667 209.5,55.5C 206.5,55.5 203.5,55.5 200.5,55.5C 200.5,52.5 200.5,49.5 200.5,46.5 Z"/></g>
<g><path style="opacity:1" fill="#eeeeee" d="M 180.5,46.5 C 183.833,46.5 187.167,46.5 190.5,46.5C 190.5,49.8333 190.5,53.1667 190.5,56.5C 187.5,56.5 184.5,56.5 181.5,56.5C 180.949,53.1933 180.616,49.8599 180.5,46.5 Z"/></g>
<g><path style="opacity:1" fill="#ececec" d="M 219.5,47.5 C 222.833,48.1667 226.167,48.8333 229.5,49.5C 229.037,52.4824 228.704,55.4824 228.5,58.5C 225.455,58.4921 222.455,58.1587 219.5,57.5C 219.5,56.1667 219.5,54.8333 219.5,53.5C 219.5,51.5 219.5,49.5 219.5,47.5 Z"/></g>
<g><path style="opacity:1" fill="#ececec" d="M 164.5,49.5 C 166.527,49.3379 168.527,49.5045 170.5,50C 171.218,52.4607 171.885,54.9607 172.5,57.5C 169.398,59.1827 166.064,59.8494 162.5,59.5C 162.037,56.5176 161.704,53.5176 161.5,50.5C 162.791,50.7373 163.791,50.404 164.5,49.5 Z"/></g>
<g><path style="opacity:1" fill="#ebebeb" d="M 148.5,54.5 C 149.822,54.33 150.989,54.6634 152,55.5C 153.136,58.0964 153.969,60.763 154.5,63.5C 151.646,63.9239 148.979,64.9239 146.5,66.5C 144.981,63.9561 143.648,61.2895 142.5,58.5C 144.397,56.9833 146.397,55.6499 148.5,54.5 Z"/></g>
<g><path style="opacity:0.999" fill="#191919" d="M 220.5,45.5 C 231.423,47.1412 242.09,49.8078 252.5,53.5C 253.492,53.3284 254.158,53.6618 254.5,54.5C 293.374,71.7076 320.708,100.041 336.5,139.5C 336.557,140.609 336.89,141.609 337.5,142.5C 338.054,145.746 339.054,148.746 340.5,151.5C 341.881,158.451 343.047,165.451 344,172.5C 346.71,196.01 343.877,218.677 335.5,240.5C 330.081,254.001 323.081,266.668 314.5,278.5C 309.843,284.489 304.843,290.156 299.5,295.5C 289.699,303.643 279.366,310.976 268.5,317.5C 268.5,317.833 268.5,318.167 268.5,318.5C 267.833,318.5 267.167,318.5 266.5,318.5C 263.093,320.181 259.759,321.847 256.5,323.5C 252.946,325.109 249.279,326.442 245.5,327.5C 243.883,328.038 242.216,328.371 240.5,328.5C 239.432,327.566 238.099,327.232 236.5,327.5C 238.792,326.66 241.125,325.66 243.5,324.5C 242.423,322.271 241.756,319.937 241.5,317.5C 241.443,316.391 241.11,315.391 240.5,314.5C 291.899,294.93 321.732,257.93 330,203.5C 333.618,143.887 309.451,99.7205 257.5,71C 242.877,64.7322 227.877,60.2322 212.5,57.5C 214.5,57.5 216.5,57.5 218.5,57.5C 218.232,55.901 218.566,54.5676 219.5,53.5C 219.5,54.8333 219.5,56.1667 219.5,57.5C 222.455,58.1587 225.455,58.4921 228.5,58.5C 228.704,55.4824 229.037,52.4824 229.5,49.5C 226.167,48.8333 222.833,48.1667 219.5,47.5C 219.833,46.8333 220.167,46.1667 220.5,45.5 Z M 258.5,59.5 C 261.301,60.7347 263.968,62.2347 266.5,64C 265.695,65.1127 265.028,66.2794 264.5,67.5C 262.856,67.7135 261.356,67.3802 260,66.5C 259.56,64.1341 259.06,61.8008 258.5,59.5 Z M 274.5,69.5 C 273.914,71.8398 272.914,74.0065 271.5,76C 273.759,77.7146 275.926,79.5479 278,81.5C 279.833,79 281.667,76.5 283.5,74C 280.714,71.9404 277.714,70.4404 274.5,69.5 Z M 290.5,81.5 C 288.8,83.2099 287.467,85.2099 286.5,87.5C 288.829,88.9979 290.663,90.9979 292,93.5C 294.167,91.3333 296.333,89.1667 298.5,87C 296.454,84.0973 293.787,82.264 290.5,81.5 Z M 305.5,94.5 C 303.827,96.8394 301.827,98.8394 299.5,100.5C 301.172,102.671 303.005,104.671 305,106.5C 307.322,105.008 309.489,103.341 311.5,101.5C 309.719,98.9088 307.719,96.5755 305.5,94.5 Z M 316.5,110.5 C 314.747,112.223 312.747,113.723 310.5,115C 311.795,117.758 313.461,120.258 315.5,122.5C 318.047,121.066 320.381,119.4 322.5,117.5C 321.163,114.422 319.163,112.089 316.5,110.5 Z M 326.5,127.5 C 324.231,128.976 321.898,130.476 319.5,132C 321.451,133.734 322.451,135.901 322.5,138.5C 325.928,138.453 328.928,137.287 331.5,135C 330.214,132.978 329.214,130.811 328.5,128.5C 328.043,127.702 327.376,127.369 326.5,127.5 Z M 327.5,150.5 C 327.782,149.222 328.449,148.222 329.5,147.5C 331.54,146.481 333.54,146.481 335.5,147.5C 339.083,154.611 336.75,157.611 328.5,156.5C 328.483,154.435 328.15,152.435 327.5,150.5 Z M 324.5,245.5 C 326.423,245.795 328.09,246.628 329.5,248C 328.206,250.087 327.039,252.254 326,254.5C 325.23,255.598 324.397,255.598 323.5,254.5C 322.986,252.634 322.32,250.8 321.5,249C 321.707,247.05 322.707,245.884 324.5,245.5 Z M 319.5,264.5 C 318.657,267.516 317.157,270.183 315,272.5C 313.729,271.117 312.229,270.117 310.5,269.5C 310.511,267.983 311.177,266.816 312.5,266C 314.866,265.56 317.199,265.06 319.5,264.5 Z M 288.5,288.5 C 286.827,290.839 284.827,292.839 282.5,294.5C 284.172,296.671 286.005,298.671 288,300.5C 290.449,299.056 292.615,297.222 294.5,295C 292.266,292.937 290.266,290.771 288.5,288.5 Z M 273.5,300.5 C 271.162,301.682 269.162,303.348 267.5,305.5C 268.448,307.944 269.948,309.944 272,311.5C 280.082,308.899 280.582,305.232 273.5,300.5 Z M 257.5,309.5 C 255.099,310.539 252.765,311.873 250.5,313.5C 251.392,316.284 252.558,318.95 254,321.5C 256.795,320.192 259.295,318.526 261.5,316.5C 260.392,313.941 259.059,311.608 257.5,309.5 Z"/></g>
<g><path style="opacity:1" fill="#f0f0f0" d="M 239.5,52.5 C 242.5,53.1667 245.5,53.8333 248.5,54.5C 247.969,57.237 247.136,59.9036 246,62.5C 237.324,63.8859 235.158,60.5526 239.5,52.5 Z"/></g>
<g><path style="opacity:0.567" fill="#e8e8e8" d="M 258.5,59.5 C 259.06,61.8008 259.56,64.1341 260,66.5C 261.356,67.3802 262.856,67.7135 264.5,67.5C 264.428,69.3109 263.595,70.6443 262,71.5C 259.073,70.6234 256.573,69.1234 254.5,67C 255.473,64.2156 256.806,61.7156 258.5,59.5 Z"/></g>
<g><path style="opacity:0.735" fill="#eeeeee" d="M 133.5,63.5 C 135.572,65.3495 136.905,67.6829 137.5,70.5C 134.932,71.7008 132.432,73.0342 130,74.5C 128.257,72.68 126.757,70.68 125.5,68.5C 130.109,69.658 132.776,67.9914 133.5,63.5 Z"/></g>
<g><path style="opacity:0.047" fill="#a5a5a5" d="M 100.5,67.5 C 99.3285,68.3446 97.9952,69.0113 96.5,69.5C 97.1834,67.8235 98.5168,67.1568 100.5,67.5 Z"/></g>
<g><path style="opacity:0.989" fill="#dfdfdf" d="M 133.5,54.5 C 133.5,55.8333 133.5,57.1667 133.5,58.5C 132.833,59.1667 132.167,59.8333 131.5,60.5C 102.672,75.9926 81.0058,98.326 66.5,127.5C 66.8432,125.517 66.1765,124.183 64.5,123.5C 79.8118,92.8549 102.812,69.8549 133.5,54.5 Z"/></g>
<g><path style="opacity:0.987" fill="#e0e0e0" d="M 257.5,51.5 C 296.767,68.7679 324.101,97.4345 339.5,137.5C 337.877,136.509 336.877,137.176 336.5,139.5C 320.708,100.041 293.374,71.7076 254.5,54.5C 256.5,54.5 257.5,53.5 257.5,51.5 Z"/></g>
<g><path style="opacity:1" fill="#313131" d="M 168.5,40.5 C 167.737,41.2679 166.737,41.7679 165.5,42C 165.728,42.3988 166.062,42.5654 166.5,42.5C 160.46,44.3749 154.46,46.3749 148.5,48.5C 143.505,50.4987 138.505,52.4987 133.5,54.5C 102.812,69.8549 79.8118,92.8549 64.5,123.5C 63.8333,125.5 63.1667,127.5 62.5,129.5C 61.8333,129.5 61.5,129.833 61.5,130.5C 60.6618,130.842 60.3284,131.508 60.5,132.5C 60.5,133.167 60.5,133.833 60.5,134.5C 59.8333,134.5 59.5,134.833 59.5,135.5C 58.8333,135.5 58.5,135.833 58.5,136.5C 54.0754,149.966 51.0754,163.633 49.5,177.5C 49.8128,173.958 49.4794,170.625 48.5,167.5C 50.3351,152.494 54.5018,138.161 61,124.5C 83.5009,79.5055 119.334,51.5055 168.5,40.5 Z"/></g>
<g><path style="opacity:1" fill="#e8e8e8" d="M 212.5,57.5 C 227.877,60.2322 242.877,64.7322 257.5,71C 309.451,99.7205 333.618,143.887 330,203.5C 321.732,257.93 291.899,294.93 240.5,314.5C 236.975,315.21 233.642,316.21 230.5,317.5C 209.157,322.701 187.823,322.701 166.5,317.5C 107.858,299.241 74.8583,259.575 67.5,198.5C 67.5,191.833 67.5,185.167 67.5,178.5C 73.4678,129.846 97.8011,93.8464 140.5,70.5C 151.778,65.5743 163.444,61.741 175.5,59C 187.801,57.7481 200.134,57.2481 212.5,57.5 Z"/></g>
<g><path style="opacity:1" fill="#151515" d="M 184.5,61.5 C 237.096,58.3833 278.263,78.3833 308,121.5C 327.699,154.839 332.032,190.172 321,227.5C 301.538,281.673 263.038,311.506 205.5,317C 154.059,318.163 114.893,296.996 88,253.5C 68.6295,216.299 66.2962,177.965 81,138.5C 102.31,95.0133 136.81,69.3466 184.5,61.5 Z"/></g>
<g><path style="opacity:1" fill="#b4b4b4" d="M 235.5,76.5 C 234.292,75.7659 232.959,75.4326 231.5,75.5C 231.737,74.209 231.404,73.209 230.5,72.5C 230.369,71.6236 230.702,70.9569 231.5,70.5C 232.281,71.7287 232.781,73.062 233,74.5C 233.368,73.09 234.201,72.09 235.5,71.5C 236.434,73.0948 236.434,74.7615 235.5,76.5 Z"/></g>
<g><path style="opacity:1" fill="#888888" d="M 215.5,67.5 C 215.5,68.8333 215.5,70.1667 215.5,71.5C 214.5,71.5 213.5,71.5 212.5,71.5C 212.657,70.1266 212.49,68.7932 212,67.5C 211.768,68.7375 211.268,69.7375 210.5,70.5C 210.5,69.1667 210.5,67.8333 210.5,66.5C 211.5,66.5 212.5,66.5 213.5,66.5C 213.343,67.8734 213.51,69.2068 214,70.5C 214.232,69.2625 214.732,68.2625 215.5,67.5 Z"/></g>
<g><path style="opacity:1" fill="#fbfbfb" d="M 210.5,70.5 C 211.268,69.7375 211.768,68.7375 212,67.5C 212.49,68.7932 212.657,70.1266 212.5,71.5C 213.5,71.5 214.5,71.5 215.5,71.5C 215.5,70.1667 215.5,68.8333 215.5,67.5C 216.161,68.7175 216.828,70.0508 217.5,71.5C 218.167,70.5 218.833,69.5 219.5,68.5C 220.167,69.8333 220.833,71.1667 221.5,72.5C 222.833,68.5 224.167,68.5 225.5,72.5C 226.167,71.5 226.833,70.5 227.5,69.5C 228.167,70.8333 228.833,72.1667 229.5,73.5C 230.107,73.3764 230.44,73.0431 230.5,72.5C 231.404,73.209 231.737,74.209 231.5,75.5C 232.959,75.4326 234.292,75.7659 235.5,76.5C 237.335,75.8777 238.502,74.5444 239,72.5C 239.5,73 240,73.5 240.5,74C 239.269,75.1827 239.269,76.3493 240.5,77.5C 241.167,76.5 241.833,75.5 242.5,74.5C 243.113,75.9798 243.446,77.3131 243.5,78.5C 244.719,77.7366 245.719,76.7366 246.5,75.5C 247.59,76.3914 247.59,77.3914 246.5,78.5C 246.833,78.8333 247.167,79.1667 247.5,79.5C 248.167,78.8333 248.833,78.1667 249.5,77.5C 250.167,78.8333 250.833,80.1667 251.5,81.5C 252.167,80.8333 252.833,80.1667 253.5,79.5C 253.833,80.8333 254.167,82.1667 254.5,83.5C 255.532,81.9604 256.865,81.4604 258.5,82C 257.483,83.0495 257.316,84.2161 258,85.5C 258.837,83.9926 260.004,83.4926 261.5,84C 260.662,88.4339 261.496,88.6006 264,84.5C 263.954,86.3126 264.12,87.9793 264.5,89.5C 268.198,86.6717 268.865,87.005 266.5,90.5C 266.833,90.8333 267.167,91.1667 267.5,91.5C 271.279,88.783 271.945,89.283 269.5,93C 271.202,94.5833 272.536,94.0833 273.5,91.5C 273.88,93.0207 274.046,94.6874 274,96.5C 274.689,95.6433 275.522,94.9767 276.5,94.5C 276.833,95.8333 277.167,97.1667 277.5,98.5C 280.926,96.2773 281.259,96.944 278.5,100.5C 278.833,100.833 279.167,101.167 279.5,101.5C 283.279,98.783 283.945,99.283 281.5,103C 283.207,103.195 284.874,103.195 286.5,103C 284.74,103.965 284.406,105.132 285.5,106.5C 289.167,104.167 289.833,104.833 287.5,108.5C 288.868,109.594 290.035,109.26 291,107.5C 291.54,109.135 291.04,110.468 289.5,111.5C 290.868,112.594 292.035,112.26 293,110.5C 293.5,111 294,111.5 294.5,112C 292.993,112.837 292.493,114.004 293,115.5C 297.903,113.983 298.403,114.65 294.5,117.5C 296.021,117.88 297.687,118.046 299.5,118C 298.5,119 297.5,120 296.5,121C 298.313,120.954 299.979,121.12 301.5,121.5C 298.917,122.464 298.417,123.798 300,125.5C 300.965,123.74 302.132,123.406 303.5,124.5C 300.54,128.089 301.207,129.256 305.5,128C 304.5,128.833 303.5,129.667 302.5,130.5C 304.216,130.997 305.883,131.331 307.5,131.5C 306.263,132.281 305.263,133.281 304.5,134.5C 306.021,134.88 307.687,135.046 309.5,135C 308.5,135.833 307.5,136.667 306.5,137.5C 308.117,137.669 309.784,138.003 311.5,138.5C 310.5,139.333 309.5,140.167 308.5,141C 313.07,141.55 313.403,142.717 309.5,144.5C 310.651,145.731 311.817,145.731 313,144.5C 313.5,145 314,145.5 314.5,146C 313.09,146.368 312.09,147.201 311.5,148.5C 312.687,148.554 314.02,148.887 315.5,149.5C 314.5,150.167 313.5,150.833 312.5,151.5C 313.833,152.167 315.167,152.833 316.5,153.5C 315.5,154.167 314.5,154.833 313.5,155.5C 314.833,156.167 316.167,156.833 317.5,157.5C 316.5,158.167 315.5,158.833 314.5,159.5C 315.833,159.833 317.167,160.167 318.5,160.5C 317.737,161.719 316.737,162.719 315.5,163.5C 316.687,163.554 318.02,163.887 319.5,164.5C 318.5,165.167 317.5,165.833 316.5,166.5C 317.833,167.167 319.167,167.833 320.5,168.5C 318.668,169.057 317.335,170.057 316.5,171.5C 310.06,169.895 305.393,171.895 302.5,177.5C 303.55,179.102 302.883,179.935 300.5,180C 300.619,181.281 300.119,182.448 299,183.5C 296.937,179.572 294.771,175.738 292.5,172C 288.833,171.333 285.167,171.333 281.5,172C 282.614,173.57 283.947,174.903 285.5,176C 284.833,176.333 284.167,176.667 283.5,177C 285.044,177.29 286.377,177.956 287.5,179C 287.167,179.333 286.833,179.667 286.5,180C 288.377,182.251 289.877,184.751 291,187.5C 292.214,189.049 293.714,190.215 295.5,191C 293.342,192.312 293.009,193.978 294.5,196C 289.459,197.008 289.792,197.508 295.5,197.5C 295.5,200.833 295.5,204.167 295.5,207.5C 298.833,207.5 302.167,207.5 305.5,207.5C 305.5,204.167 305.5,200.833 305.5,197.5C 301.107,197.543 300.774,197.043 304.5,196C 303.884,193.61 303.884,191.444 304.5,189.5C 308.116,182.899 312.449,176.899 317.5,171.5C 321.335,172.004 321.335,173.004 317.5,174.5C 322.833,175.833 322.833,177.167 317.5,178.5C 322.833,179.833 322.833,181.167 317.5,182.5C 318.833,183.167 320.167,183.833 321.5,184.5C 317.556,186.404 317.89,187.404 322.5,187.5C 322.5,188.833 322.5,190.167 322.5,191.5C 321.022,191.238 319.689,191.571 318.5,192.5C 319.325,193.386 320.325,193.719 321.5,193.5C 320.432,194.434 319.099,194.768 317.5,194.5C 317.5,195.5 317.5,196.5 317.5,197.5C 318.833,197.5 320.167,197.5 321.5,197.5C 320.77,199.045 319.437,199.878 317.5,200C 318.793,200.49 320.127,200.657 321.5,200.5C 321.5,201.5 321.5,202.5 321.5,203.5C 316.959,203.331 316.626,203.998 320.5,205.5C 319.167,206.167 317.833,206.833 316.5,207.5C 320.5,208.833 320.5,210.167 316.5,211.5C 317.5,212.167 318.5,212.833 319.5,213.5C 318.167,214.167 316.833,214.833 315.5,215.5C 316.5,216.167 317.5,216.833 318.5,217.5C 317.167,218.167 315.833,218.833 314.5,219.5C 315.5,220.167 316.5,220.833 317.5,221.5C 316.02,222.113 314.687,222.446 313.5,222.5C 314.263,223.719 315.263,224.719 316.5,225.5C 315.167,225.833 313.833,226.167 312.5,226.5C 313.325,227.386 314.325,227.719 315.5,227.5C 315.719,228.675 315.386,229.675 314.5,230.5C 311.212,229.462 310.879,230.128 313.5,232.5C 312.167,232.833 310.833,233.167 309.5,233.5C 310.263,234.719 311.263,235.719 312.5,236.5C 311.167,236.833 309.833,237.167 308.5,237.5C 309.5,238.333 310.5,239.167 311.5,240C 309.744,240.202 308.078,240.702 306.5,241.5C 307.5,242.167 308.5,242.833 309.5,243.5C 307.784,243.997 306.117,244.331 304.5,244.5C 308.641,247.099 308.474,247.765 304,246.5C 302.417,248.202 302.917,249.536 305.5,250.5C 304.167,250.833 302.833,251.167 301.5,251.5C 302.167,252.167 302.833,252.833 303.5,253.5C 303,253.833 302.5,254.167 302,254.5C 297.564,253.638 297.397,254.472 301.5,257C 299.687,256.954 298.021,257.12 296.5,257.5C 297.167,258.5 297.833,259.5 298.5,260.5C 297.336,260.165 296.003,260.165 294.5,260.5C 297.217,264.279 296.717,264.945 293,262.5C 292.46,264.135 292.96,265.468 294.5,266.5C 294.167,266.833 293.833,267.167 293.5,267.5C 289.5,264.833 288.833,265.5 291.5,269.5C 290.132,270.594 288.965,270.26 288,268.5C 286.417,270.202 286.917,271.536 289.5,272.5C 289.167,272.833 288.833,273.167 288.5,273.5C 284.5,270.833 283.833,271.5 286.5,275.5C 286.167,275.833 285.833,276.167 285.5,276.5C 281.721,273.783 281.055,274.283 283.5,278C 281.874,277.805 280.207,277.805 278.5,278C 280.26,278.965 280.594,280.132 279.5,281.5C 278.522,281.023 277.689,280.357 277,279.5C 277.046,281.313 276.88,282.979 276.5,284.5C 272.879,281.797 272.212,282.13 274.5,285.5C 273.132,286.594 271.965,286.26 271,284.5C 271.046,286.313 270.88,287.979 270.5,289.5C 269.719,288.263 268.719,287.263 267.5,286.5C 267.167,286.833 266.833,287.167 266.5,287.5C 267.167,288.5 267.833,289.5 268.5,290.5C 268.167,290.833 267.833,291.167 267.5,291.5C 263.911,288.54 262.744,289.207 264,293.5C 263.311,292.643 262.478,291.977 261.5,291.5C 261.167,292.833 260.833,294.167 260.5,295.5C 259.536,292.917 258.202,292.417 256.5,294C 258.26,294.965 258.594,296.132 257.5,297.5C 256.281,296.737 255.281,295.737 254.5,294.5C 254.003,296.216 253.669,297.883 253.5,299.5C 251.041,295.65 249.874,296.316 250,301.5C 249.167,300.5 248.333,299.5 247.5,298.5C 247.167,299.833 246.833,301.167 246.5,302.5C 245.719,301.263 244.719,300.263 243.5,299.5C 242.41,300.391 242.41,301.391 243.5,302.5C 243.167,302.833 242.833,303.167 242.5,303.5C 241.833,302.833 241.167,302.167 240.5,301.5C 240.167,302.833 239.833,304.167 239.5,305.5C 238.719,304.263 237.719,303.263 236.5,302.5C 236.167,303.833 235.833,305.167 235.5,306.5C 234.667,305.5 233.833,304.5 233,303.5C 232.45,308.07 231.283,308.403 229.5,304.5C 228.833,305.833 228.167,307.167 227.5,308.5C 226.833,307.5 226.167,306.5 225.5,305.5C 224.833,306.833 224.167,308.167 223.5,309.5C 222.833,308.5 222.167,307.5 221.5,306.5C 220.41,307.391 220.41,308.391 221.5,309.5C 220.675,310.386 219.675,310.719 218.5,310.5C 217.996,306.665 216.996,306.665 215.5,310.5C 214.749,309.624 214.249,308.624 214,307.5C 213.45,312.07 212.283,312.403 210.5,308.5C 209.167,312.5 207.833,312.5 206.5,308.5C 205.167,312.5 203.833,312.5 202.5,308.5C 201.167,313.833 199.833,313.833 198.5,308.5C 197.167,313.833 195.833,313.833 194.5,308.5C 193.167,312.5 191.833,312.5 190.5,308.5C 189.833,309.5 189.167,310.5 188.5,311.5C 187.167,306.167 185.833,306.167 184.5,311.5C 183.833,310.167 183.167,308.833 182.5,307.5C 180.998,311.374 180.331,311.041 180.5,306.5C 179.5,306.5 178.5,306.5 177.5,306.5C 176.968,311.797 176.134,311.797 175,306.5C 173.306,310.396 172.14,310.062 171.5,305.5C 170.833,306.5 170.167,307.5 169.5,308.5C 168.833,307.167 168.167,305.833 167.5,304.5C 166.833,305.5 166.167,306.5 165.5,307.5C 164.833,306.167 164.167,304.833 163.5,303.5C 162.833,304.5 162.167,305.5 161.5,306.5C 160.269,305.349 160.269,304.183 161.5,303C 159.609,302.691 158.275,303.525 157.5,305.5C 156.548,304.467 156.548,303.3 157.5,302C 156.969,300.282 156.302,300.115 155.5,301.5C 154.596,300.791 154.263,299.791 154.5,298.5C 152.194,298.007 149.861,297.674 147.5,297.5C 146.048,296.287 144.714,296.62 143.5,298.5C 143.167,297.167 142.833,295.833 142.5,294.5C 141.536,297.083 140.202,297.583 138.5,296C 140.26,295.035 140.594,293.868 139.5,292.5C 138.281,293.263 137.281,294.263 136.5,295.5C 136.331,293.883 135.997,292.216 135.5,290.5C 134.667,291.5 133.833,292.5 133,293.5C 133.046,291.687 132.88,290.021 132.5,288.5C 128.802,291.328 128.135,290.995 130.5,287.5C 130.167,287.167 129.833,286.833 129.5,286.5C 125.721,289.217 125.055,288.717 127.5,285C 126.181,283.372 124.848,283.539 123.5,285.5C 123.835,284.336 123.835,283.003 123.5,281.5C 119.721,284.217 119.055,283.717 121.5,280C 119.865,279.46 118.532,279.96 117.5,281.5C 117.12,279.979 116.954,278.313 117,276.5C 113.283,278.945 112.783,278.279 115.5,274.5C 115.167,274.167 114.833,273.833 114.5,273.5C 110.721,276.217 110.055,275.717 112.5,272C 111.049,272.263 109.716,272.096 108.5,271.5C 108.977,270.522 109.643,269.689 110.5,269C 108.874,269.195 107.207,269.195 105.5,269C 106.167,268 106.833,267 107.5,266C 105.874,266.195 104.207,266.195 102.5,266C 105.32,263.506 105.153,262.673 102,263.5C 101.5,263.167 101,262.833 100.5,262.5C 101.167,261.833 101.833,261.167 102.5,260.5C 101.167,260.167 99.8333,259.833 98.5,259.5C 101.257,256.684 100.757,256.018 97,257.5C 96.6666,255.953 97.1666,254.62 98.5,253.5C 97.2839,252.904 95.9506,252.737 94.5,253C 95.3567,252.311 96.0233,251.478 96.5,250.5C 94.8827,250.331 93.216,249.997 91.5,249.5C 95.6411,246.901 95.4745,246.235 91,247.5C 89.4167,245.798 89.9167,244.464 92.5,243.5C 90.8827,243.331 89.216,242.997 87.5,242.5C 91.712,240.278 91.3787,239.111 86.5,239C 87.5,238.167 88.5,237.333 89.5,236.5C 87.784,236.003 86.1173,235.669 84.5,235.5C 85.7366,234.719 86.7366,233.719 87.5,232.5C 86.3131,232.446 84.9798,232.113 83.5,231.5C 84.5,230.833 85.5,230.167 86.5,229.5C 85.3493,228.269 84.1827,228.269 83,229.5C 82.5172,228.552 82.3505,227.552 82.5,226.5C 83.675,226.719 84.675,226.386 85.5,225.5C 83.784,225.003 82.1173,224.669 80.5,224.5C 81.8333,223.5 83.1667,222.5 84.5,221.5C 82.784,221.003 81.1173,220.669 79.5,220.5C 80.9079,219.757 82.2412,218.923 83.5,218C 78.9299,217.45 78.5966,216.283 82.5,214.5C 81.1667,213.833 79.8333,213.167 78.5,212.5C 79.9935,211.859 80.9935,210.859 81.5,209.5C 81.5,208.167 81.5,206.833 81.5,205.5C 79.901,205.768 78.5676,205.434 77.5,204.5C 78.3984,203.842 79.3984,203.176 80.5,202.5C 79.0508,201.828 77.7175,201.161 76.5,200.5C 77.8333,200.5 79.1667,200.5 80.5,200.5C 80.5,199.5 80.5,198.5 80.5,197.5C 79.1667,197.5 77.8333,197.5 76.5,197.5C 76.8807,196.069 77.8807,195.236 79.5,195C 74.2702,194.091 74.2702,192.925 79.5,191.5C 74.1667,190.167 74.1667,188.833 79.5,187.5C 74.1667,186.167 74.1667,184.833 79.5,183.5C 75.5,182.167 75.5,180.833 79.5,179.5C 78.5,178.833 77.5,178.167 76.5,177.5C 81.8333,176.167 81.8333,174.833 76.5,173.5C 77.9492,172.828 79.2825,172.161 80.5,171.5C 80.0825,170.778 79.4158,170.278 78.5,170C 79.7375,169.768 80.7375,169.268 81.5,168.5C 80.5707,167.685 79.5707,166.852 78.5,166C 83.0701,165.45 83.4034,164.283 79.5,162.5C 84.6945,160.942 84.6945,159.942 79.5,159.5C 79.5,158.5 79.5,157.5 79.5,156.5C 84.1117,157.943 84.445,157.277 80.5,154.5C 82.0777,153.702 83.7444,153.202 85.5,153C 81.6081,150.842 81.6081,150.008 85.5,150.5C 85.8333,150.167 86.1667,149.833 86.5,149.5C 85.5,148.667 84.5,147.833 83.5,147C 88.2809,146.482 88.6142,145.148 84.5,143C 86.1667,142.667 87.8333,142.333 89.5,142C 88.09,141.632 87.09,140.799 86.5,139.5C 87.8333,139.167 89.1667,138.833 90.5,138.5C 86.6497,136.041 87.3164,134.874 92.5,135C 91.5,134.167 90.5,133.333 89.5,132.5C 91.1173,132.331 92.784,131.997 94.5,131.5C 93.5,130.667 92.5,129.833 91.5,129C 93.3126,129.046 94.9793,128.88 96.5,128.5C 95.7366,127.281 94.7366,126.281 93.5,125.5C 95.0207,125.12 96.6874,124.954 98.5,125C 97.6433,124.311 96.9767,123.478 96.5,122.5C 97.8333,122.167 99.1667,121.833 100.5,121.5C 97.7966,117.879 98.13,117.212 101.5,119.5C 101.833,119.167 102.167,118.833 102.5,118.5C 101.833,117.5 101.167,116.5 100.5,115.5C 102.003,115.165 103.336,115.165 104.5,115.5C 101.833,111.5 102.5,110.833 106.5,113.5C 106.833,113.167 107.167,112.833 107.5,112.5C 106.833,111.5 106.167,110.5 105.5,109.5C 107.003,109.165 108.336,109.165 109.5,109.5C 107.167,105.833 107.833,105.167 111.5,107.5C 111.833,107.167 112.167,106.833 112.5,106.5C 109.833,102.5 110.5,101.833 114.5,104.5C 114.5,103.167 114.5,101.833 114.5,100.5C 118.167,102.833 118.833,102.167 116.5,98.5C 116.833,98.1667 117.167,97.8333 117.5,97.5C 121.056,100.259 121.723,99.9259 119.5,96.5C 120.868,95.4063 122.035,95.7397 123,97.5C 124.628,96.1813 124.461,94.8479 122.5,93.5C 122.833,93.1667 123.167,92.8333 123.5,92.5C 127.502,95.3429 128.168,94.8429 125.5,91C 125.833,90.5 126.167,90 126.5,89.5C 127.333,90.5 128.167,91.5 129,92.5C 128.954,90.6874 129.12,89.0207 129.5,87.5C 130.719,88.2634 131.719,89.2634 132.5,90.5C 132.669,88.8827 133.003,87.216 133.5,85.5C 134.167,86.5 134.833,87.5 135.5,88.5C 135.997,86.784 136.331,85.1173 136.5,83.5C 137.464,86.0833 138.798,86.5833 140.5,85C 138.74,84.0347 138.406,82.868 139.5,81.5C 140.719,82.2634 141.719,83.2634 142.5,84.5C 143.452,83.467 143.452,82.3004 142.5,81C 142.833,80.5 143.167,80 143.5,79.5C 144.167,80.5 144.833,81.5 145.5,82.5C 146.731,81.3493 146.731,80.1827 145.5,79C 147.202,77.4167 148.536,77.9167 149.5,80.5C 149.833,79.1667 150.167,77.8333 150.5,76.5C 151.333,77.5 152.167,78.5 153,79.5C 153.23,75.7868 154.397,75.1201 156.5,77.5C 156.833,77.1667 157.167,76.8333 157.5,76.5C 156.41,75.3914 156.41,74.3914 157.5,73.5C 158.281,74.7366 159.281,75.7366 160.5,76.5C 160.833,75.1667 161.167,73.8333 161.5,72.5C 162.333,73.5 163.167,74.5 164,75.5C 164.563,69.6595 165.73,69.3261 167.5,74.5C 168.167,73.1667 168.833,71.8333 169.5,70.5C 170.167,71.5 170.833,72.5 171.5,73.5C 172.167,72.1667 172.833,70.8333 173.5,69.5C 175.283,73.4034 176.45,73.0701 177,68.5C 177.915,69.3279 178.581,70.3279 179,71.5C 179.909,66.2702 181.075,66.2702 182.5,71.5C 183.167,69.8333 183.833,68.1667 184.5,66.5C 185.833,71.8333 187.167,71.8333 188.5,66.5C 189.833,71.8333 191.167,71.8333 192.5,66.5C 193.833,71.8333 195.167,71.8333 196.5,66.5C 197.833,71.8333 199.167,71.8333 200.5,66.5C 201.833,71.8333 203.167,71.8333 204.5,66.5C 205.833,71.8333 207.167,71.8333 208.5,66.5C 209.172,67.9492 209.839,69.2825 210.5,70.5 Z"/></g>
<g><path style="opacity:1" fill="#060606" d="M 151.5,126.5 C 158.574,126.161 165.574,126.661 172.5,128C 178.079,131.887 180.246,137.053 179,143.5C 177.445,146.055 175.278,147.888 172.5,149C 173.552,150.716 172.886,151.716 170.5,152C 172.421,152.36 174.088,153.194 175.5,154.5C 177.158,157.161 178.824,159.827 180.5,162.5C 176.833,163.833 173.167,163.833 169.5,162.5C 167.665,157.674 165.165,153.341 162,149.5C 160.621,154.036 160.121,158.703 160.5,163.5C 157.167,163.5 153.833,163.5 150.5,163.5C 150.396,156.079 151.063,148.745 152.5,141.5C 151.5,140.667 150.5,139.833 149.5,139C 150.347,134.895 151.013,130.728 151.5,126.5 Z"/></g>
<g><path style="opacity:1" fill="#050505" d="M 193.5,136.5 C 193.5,138.5 193.5,140.5 193.5,142.5C 197.5,142.5 201.5,142.5 205.5,142.5C 206.156,143.278 206.989,143.944 208,144.5C 208.5,144.167 209,143.833 209.5,143.5C 211.379,138.21 213.045,132.876 214.5,127.5C 217.768,126.513 221.102,126.18 224.5,126.5C 224.687,128.564 225.187,130.564 226,132.5C 229.26,135.185 231.094,138.685 231.5,143C 231.095,143.945 230.428,144.612 229.5,145C 231.751,147.723 233.251,150.889 234,154.5C 234.073,147.268 233.573,140.101 232.5,133C 234.787,131.573 235.12,129.739 233.5,127.5C 236.768,126.513 240.102,126.18 243.5,126.5C 243.917,129.079 243.25,131.246 241.5,133C 243.447,140.558 244.114,148.391 243.5,156.5C 247.833,156.5 252.167,156.5 256.5,156.5C 256.859,158.766 256.192,160.599 254.5,162C 255.167,162.333 255.833,162.667 256.5,163C 246.506,163.5 236.506,163.666 226.5,163.5C 226.67,162.178 226.337,161.011 225.5,160C 223.167,159.667 220.833,159.333 218.5,159C 219.833,158.333 219.833,157.667 218.5,157C 215.446,156.179 212.446,156.345 209.5,157.5C 212.644,158.406 212.977,160.239 210.5,163C 200.839,163.5 191.172,163.666 181.5,163.5C 181.773,161.549 181.107,160.049 179.5,159C 180.833,158.667 182.167,158.333 183.5,158C 182.833,157.667 182.167,157.333 181.5,157C 181.629,153.045 181.629,148.878 181.5,144.5C 182.5,144.5 183.5,144.5 184.5,144.5C 183.556,138.158 182.556,132.158 181.5,126.5C 189.174,126.334 196.841,126.5 204.5,127C 205.227,129.124 205.894,131.291 206.5,133.5C 201.833,134.167 197.167,134.833 192.5,135.5C 192.624,136.107 192.957,136.44 193.5,136.5 Z"/></g>
<g><path style="opacity:0.055" fill="#dbdbdb" d="M 66.5,127.5 C 66.3404,129.153 65.6737,130.486 64.5,131.5C 63.0413,131.433 61.7079,131.766 60.5,132.5C 60.3284,131.508 60.6618,130.842 61.5,130.5C 62.1667,130.5 62.5,130.167 62.5,129.5C 64.0618,129.267 65.3951,128.6 66.5,127.5 Z"/></g>
<g><path style="opacity:0.297" fill="#e3e3e3" d="M 64.5,132.5 C 63.4031,135.686 62.0697,138.686 60.5,141.5C 59.8333,139.833 59.1667,138.167 58.5,136.5C 58.5,135.833 58.8333,135.5 59.5,135.5C 60.1667,135.5 60.5,135.167 60.5,134.5C 61.6049,133.4 62.9382,132.733 64.5,132.5 Z"/></g>
<g><path style="opacity:1" fill="#fdfdfd" d="M 160.5,134.5 C 166.385,132.953 169.719,135.12 170.5,141C 167.822,143.446 164.822,143.946 161.5,142.5C 162.025,141.808 162.692,141.308 163.5,141C 159.248,140.389 158.248,138.222 160.5,134.5 Z"/></g>
<g><path style="opacity:1" fill="#adadad" d="M 193.5,136.5 C 194.451,137.919 194.784,139.585 194.5,141.5C 198.371,141.185 202.038,141.518 205.5,142.5C 201.5,142.5 197.5,142.5 193.5,142.5C 193.5,140.5 193.5,138.5 193.5,136.5 Z"/></g>
<g><path style="opacity:0.154" fill="#e3e3e3" d="M 337.5,142.5 C 338.5,142.5 339.5,142.5 340.5,142.5C 340.5,143.167 340.833,143.5 341.5,143.5C 342.434,144.568 342.768,145.901 342.5,147.5C 341.655,148.671 340.989,150.005 340.5,151.5C 339.054,148.746 338.054,145.746 337.5,142.5 Z"/></g>
<g><path style="opacity:1" fill="#fbfbfb" d="M 203.5,144.5 C 204.995,144.415 205.995,145.081 206.5,146.5C 205.5,149.167 204.5,151.833 203.5,154.5C 199.645,156.003 195.645,156.67 191.5,156.5C 191.5,154.5 191.5,152.5 191.5,150.5C 193.394,149.41 197.394,149.077 203.5,149.5C 203.5,147.833 203.5,146.167 203.5,144.5 Z"/></g>
<g><path style="opacity:1" fill="#f7f7f7" d="M 219.5,139.5 C 221.185,140.184 222.185,141.517 222.5,143.5C 221.975,144.192 221.308,144.692 220.5,145C 221.861,146.584 222.528,148.418 222.5,150.5C 220.167,150.5 217.833,150.5 215.5,150.5C 215.421,149.07 215.754,147.736 216.5,146.5C 215.975,145.808 215.308,145.308 214.5,145C 218.459,145.209 220.126,143.375 219.5,139.5 Z"/></g>
<g><path style="opacity:0.412" fill="#adadad" d="M 329.5,147.5 C 328.449,148.222 327.782,149.222 327.5,150.5C 326.596,149.791 326.263,148.791 326.5,147.5C 327.5,147.5 328.5,147.5 329.5,147.5 Z"/></g>
<g><path style="opacity:1" fill="#f3f3f3" d="M 231.5,155.5 C 232.5,155.5 233.5,155.5 234.5,155.5C 234.5,156.833 234.5,158.167 234.5,159.5C 232.143,159.663 229.81,159.497 227.5,159C 229.167,158.667 230.833,158.333 232.5,158C 231.748,157.329 231.414,156.496 231.5,155.5 Z"/></g>
<g><path style="opacity:1" fill="#a7a7a7" d="M 220.5,156.5 C 222.086,157.148 223.753,157.648 225.5,158C 224.667,158.167 223.833,158.333 223,158.5C 221.624,158.316 220.791,157.649 220.5,156.5 Z"/></g>
<g><path style="opacity:1" fill="#f1f1f1" d="M 331.5,165.5 C 334.5,165.5 337.5,165.5 340.5,165.5C 340.508,168.545 340.841,171.545 341.5,174.5C 338.167,174.833 334.833,175.167 331.5,175.5C 331.172,172.018 331.172,168.685 331.5,165.5 Z"/></g>
<g><path style="opacity:1" fill="#8b8b8b" d="M 81.5,168.5 C 80.7375,169.268 79.7375,169.768 78.5,170C 79.4158,170.278 80.0825,170.778 80.5,171.5C 79.5,171.5 78.5,171.5 77.5,171.5C 77.5,170.5 77.5,169.5 77.5,168.5C 78.8333,168.5 80.1667,168.5 81.5,168.5 Z"/></g>
<g><path style="opacity:1" fill="#010101" d="M 85.5,171.5 C 92.175,171.334 98.8417,171.5 105.5,172C 107.531,172.632 109.198,173.799 110.5,175.5C 115.176,183.362 113.843,189.529 106.5,194C 109.648,198.651 112.314,203.485 114.5,208.5C 111.15,208.665 107.817,208.498 104.5,208C 102.051,203.32 99.3846,198.82 96.5,194.5C 95.914,194.709 95.414,195.043 95,195.5C 94.501,199.821 94.3343,204.154 94.5,208.5C 91.1667,208.5 87.8333,208.5 84.5,208.5C 84.3293,200.878 84.996,193.378 86.5,186C 84.2103,181.428 83.877,176.594 85.5,171.5 Z"/></g>
<g><path style="opacity:1" fill="#030303" d="M 130.5,171.5 C 133.518,171.335 136.518,171.502 139.5,172C 142.758,174.461 146.425,176.127 150.5,177C 150.043,177.414 149.709,177.914 149.5,178.5C 151.559,181.949 153.059,185.616 154,189.5C 154.246,184.628 154.746,179.795 155.5,175C 155.265,174.127 154.931,173.293 154.5,172.5C 157.446,171.345 160.446,171.179 163.5,172C 165.037,173.11 165.703,174.61 165.5,176.5C 164.448,176.351 163.448,176.517 162.5,177C 163.582,185.121 164.582,193.287 165.5,201.5C 169.902,201.228 174.235,201.561 178.5,202.5C 179.287,201.758 179.953,200.925 180.5,200C 179.594,198.301 179.261,196.467 179.5,194.5C 175.5,194.167 175.5,193.833 179.5,193.5C 179.5,191.833 179.5,190.167 179.5,188.5C 180.5,188.5 181.5,188.5 182.5,188.5C 182.858,185.102 182.192,181.935 180.5,179C 180.645,178.228 180.978,177.561 181.5,177C 179.808,175.599 179.141,173.766 179.5,171.5C 187.5,171.5 195.5,171.5 203.5,171.5C 203.833,175.5 204.167,175.5 204.5,171.5C 211.175,171.334 217.842,171.5 224.5,172C 234.573,176.562 235.24,183.228 226.5,192C 222.241,193.042 217.907,193.875 213.5,194.5C 214.443,199.1 214.777,203.767 214.5,208.5C 211.223,208.784 208.057,208.451 205,207.5C 204.852,201.522 204.018,195.688 202.5,190C 203.833,189.667 205.167,189.333 206.5,189C 204.527,188.505 202.527,188.338 200.5,188.5C 200.5,190.167 200.5,191.833 200.5,193.5C 195.821,193.334 191.155,193.501 186.5,194C 188.045,195.688 189.045,197.688 189.5,200C 194.155,200.499 198.821,200.666 203.5,200.5C 203.5,202.833 203.5,205.167 203.5,207.5C 195.5,207.5 187.5,207.5 179.5,207.5C 179.762,206.022 179.429,204.689 178.5,203.5C 177.548,205.045 177.215,206.712 177.5,208.5C 170.167,208.5 162.833,208.5 155.5,208.5C 155.969,203.014 155.636,199.681 154.5,198.5C 150.901,199.564 147.901,201.731 145.5,205C 139.755,207.46 133.755,208.127 127.5,207C 124.274,205.802 121.441,203.969 119,201.5C 119.605,198.263 119.105,195.097 117.5,192C 119.5,191.667 121.5,191.333 123.5,191C 121.109,190.713 118.776,190.213 116.5,189.5C 115.109,185.52 115.775,181.853 118.5,178.5C 119.729,177.719 121.062,177.219 122.5,177C 120.699,176.683 120.366,176.016 121.5,175C 124.571,173.704 127.571,172.538 130.5,171.5 Z"/></g>
<g><path style="opacity:1" fill="#010101" d="M 278.5,203.5 C 276.81,202.897 275.31,201.897 274,200.5C 273.583,201.756 272.75,202.423 271.5,202.5C 270.486,201.235 268.986,200.569 267,200.5C 265.5,200.833 264,201.167 262.5,201.5C 265.32,204.861 264.487,206.861 260,207.5C 251.859,208.388 243.692,208.721 235.5,208.5C 235.494,200.452 234.828,192.452 233.5,184.5C 233.641,181.181 234.307,178.014 235.5,175C 235.241,173.739 234.574,172.739 233.5,172C 235.167,171.833 236.833,171.667 238.5,171.5C 240.641,171.613 242.475,172.28 244,173.5C 244.658,175.108 244.158,176.275 242.5,177C 243.54,185.085 244.206,193.252 244.5,201.5C 248.22,201.436 251.886,200.936 255.5,200C 256.962,196.906 258.296,193.739 259.5,190.5C 260.242,189.713 261.075,189.047 262,188.5C 263.869,183.228 265.535,177.894 267,172.5C 270.073,171.383 273.24,171.216 276.5,172C 277.686,174.716 279.353,177.049 281.5,179C 282.401,181.871 283.401,184.704 284.5,187.5C 283.624,188.251 282.624,188.751 281.5,189C 284.186,191.367 285.853,194.367 286.5,198C 285.978,198.95 285.311,199.784 284.5,200.5C 284.709,201.086 285.043,201.586 285.5,202C 283.833,202.333 282.167,202.667 280.5,203C 283.167,203.333 285.833,203.667 288.5,204C 289.337,205.011 289.67,206.178 289.5,207.5C 286.167,207.5 282.833,207.5 279.5,207.5C 279.567,206.041 279.234,204.708 278.5,203.5 Z"/></g>
<g><path style="opacity:1" fill="#050505" d="M 316.5,171.5 C 316.833,171.5 317.167,171.5 317.5,171.5C 312.449,176.899 308.116,182.899 304.5,189.5C 303.884,191.444 303.884,193.61 304.5,196C 300.774,197.043 301.107,197.543 305.5,197.5C 305.5,200.833 305.5,204.167 305.5,207.5C 302.167,207.5 298.833,207.5 295.5,207.5C 295.5,204.167 295.5,200.833 295.5,197.5C 289.792,197.508 289.459,197.008 294.5,196C 293.009,193.978 293.342,192.312 295.5,191C 293.714,190.215 292.214,189.049 291,187.5C 289.877,184.751 288.377,182.251 286.5,180C 286.833,179.667 287.167,179.333 287.5,179C 286.377,177.956 285.044,177.29 283.5,177C 284.167,176.667 284.833,176.333 285.5,176C 283.947,174.903 282.614,173.57 281.5,172C 285.167,171.333 288.833,171.333 292.5,172C 294.771,175.738 296.937,179.572 299,183.5C 300.119,182.448 300.619,181.281 300.5,180C 302.883,179.935 303.55,179.102 302.5,177.5C 305.393,171.895 310.06,169.895 316.5,171.5 Z"/></g>
<g><path style="opacity:0.876" fill="#f9f9f9" d="M 63.5,172.5 C 65.1484,174.456 65.8151,176.789 65.5,179.5C 63.0122,181.388 60.0122,182.055 56.5,181.5C 56.5,178.5 56.5,175.5 56.5,172.5C 58.8333,172.5 61.1667,172.5 63.5,172.5 Z"/></g>
<g><path style="opacity:1" fill="#fefefe" d="M 94.5,178.5 C 100.707,177.418 104.041,179.918 104.5,186C 99.4872,188.512 95.8206,187.846 93.5,184C 94.4061,182.301 94.7394,180.467 94.5,178.5 Z"/></g>
<g><path style="opacity:1" fill="#fefffe" d="M 190.5,178.5 C 195.167,178.5 199.833,178.5 204.5,178.5C 204.167,181.167 203.833,183.833 203.5,186.5C 199.833,186.5 196.167,186.5 192.5,186.5C 192.635,183.583 191.968,180.916 190.5,178.5 Z"/></g>
<g><path style="opacity:1" fill="#fcfcfc" d="M 214.5,178.5 C 216.857,178.337 219.19,178.503 221.5,179C 223.791,181.016 223.791,183.183 221.5,185.5C 218.916,186.393 216.249,186.726 213.5,186.5C 213.833,183.833 214.167,181.167 214.5,178.5 Z"/></g>
<g><path style="opacity:1" fill="#fafafa" d="M 130.5,179.5 C 138.379,178.391 142.712,181.724 143.5,189.5C 144.5,189.5 145.5,189.5 146.5,189.5C 146.029,197.129 141.862,200.796 134,200.5C 132.373,200.375 130.873,199.875 129.5,199C 129.957,198.586 130.291,198.086 130.5,197.5C 129.248,195.999 128.248,194.332 127.5,192.5C 129.078,191.702 130.744,191.202 132.5,191C 129.832,190.433 127.166,189.933 124.5,189.5C 124.469,184.887 126.469,181.553 130.5,179.5 Z"/></g>
<g><path style="opacity:0.99" fill="#212121" d="M 48.5,167.5 C 49.4794,170.625 49.8128,173.958 49.5,177.5C 49.5,184.833 49.5,192.167 49.5,199.5C 49.8168,203.702 49.4834,207.702 48.5,211.5C 47.6758,208.236 47.3424,204.902 47.5,201.5C 47.5,193.833 47.5,186.167 47.5,178.5C 47.3227,174.766 47.6561,171.099 48.5,167.5 Z"/></g>
<g><path style="opacity:0.186" fill="#bbbbbb" d="M 54.5,168.5 C 53.6345,178.473 53.3012,188.473 53.5,198.5C 52.7593,190.488 52.0926,182.321 51.5,174C 52.2311,171.917 53.2311,170.084 54.5,168.5 Z"/></g>
<g><path style="opacity:1" fill="#f2f2f2" d="M 272.5,184.5 C 274.026,185.105 275.026,186.271 275.5,188C 274.5,188.333 273.5,188.667 272.5,189C 274.099,190.066 275.099,191.566 275.5,193.5C 272.894,194.652 270.227,194.818 267.5,194C 268.167,192.667 268.833,191.333 269.5,190C 268.833,189.667 268.167,189.333 267.5,189C 270.491,188.855 272.158,187.355 272.5,184.5 Z"/></g>
<g><path style="opacity:1" fill="#fcfcfc" d="M 332.5,185.5 C 335.5,185.5 338.5,185.5 341.5,185.5C 341.5,189.833 341.5,194.167 341.5,198.5C 338.5,198.5 335.5,198.5 332.5,198.5C 332.5,194.167 332.5,189.833 332.5,185.5 Z"/></g>
<g><path style="opacity:1" fill="#707070" d="M 63.5,172.5 C 64.5,172.5 65.5,172.5 66.5,172.5C 66.2053,174.735 66.5386,176.735 67.5,178.5C 67.5,185.167 67.5,191.833 67.5,198.5C 66.8333,192.167 66.1667,185.833 65.5,179.5C 65.8151,176.789 65.1484,174.456 63.5,172.5 Z"/></g>
<g><path style="opacity:1" fill="#9c9c9c" d="M 332.5,185.5 C 335.625,184.521 338.958,184.187 342.5,184.5C 342.819,189.363 342.486,194.03 341.5,198.5C 341.5,194.167 341.5,189.833 341.5,185.5C 338.5,185.5 335.5,185.5 332.5,185.5 Z"/></g>
<g><path style="opacity:0.015" fill="#bebebe" d="M 47.5,178.5 C 47.5,186.167 47.5,193.833 47.5,201.5C 46.1667,200.833 45.1667,199.833 44.5,198.5C 44.634,196.708 44.3007,195.042 43.5,193.5C 44.5,193.5 45.5,193.5 46.5,193.5C 46.1795,188.305 46.5128,183.305 47.5,178.5 Z"/></g>
<g><path style="opacity:1" fill="#747474" d="M 321.5,193.5 C 322.043,193.56 322.376,193.893 322.5,194.5C 321.271,195.281 319.938,195.781 318.5,196C 319.737,196.232 320.737,196.732 321.5,197.5C 320.167,197.5 318.833,197.5 317.5,197.5C 317.5,196.5 317.5,195.5 317.5,194.5C 319.099,194.768 320.432,194.434 321.5,193.5 Z"/></g>
<g><path style="opacity:1" fill="#929292" d="M 76.5,197.5 C 77.8333,197.5 79.1667,197.5 80.5,197.5C 80.5,198.5 80.5,199.5 80.5,200.5C 79.1667,200.5 77.8333,200.5 76.5,200.5C 77.2625,199.732 78.2625,199.232 79.5,199C 78.2625,198.768 77.2625,198.268 76.5,197.5 Z"/></g>
<g><path style="opacity:1" fill="#808080" d="M 278.5,203.5 C 274.638,203.934 272.305,203.6 271.5,202.5C 272.75,202.423 273.583,201.756 274,200.5C 275.31,201.897 276.81,202.897 278.5,203.5 Z"/></g>
<g><path style="opacity:1" fill="#b3b3b3" d="M 77.5,204.5 C 78.5676,205.434 79.901,205.768 81.5,205.5C 81.5,206.833 81.5,208.167 81.5,209.5C 77.0293,209.328 76.6959,208.494 80.5,207C 79.062,206.781 77.7287,206.281 76.5,205.5C 76.6236,204.893 76.9569,204.56 77.5,204.5 Z"/></g>
<g><path style="opacity:1" fill="#f2f2f2" d="M 331.5,208.5 C 334.5,208.5 337.5,208.5 340.5,208.5C 340.384,211.86 340.051,215.193 339.5,218.5C 336.482,218.296 333.482,217.963 330.5,217.5C 330.264,214.391 330.597,211.391 331.5,208.5 Z"/></g>
<g><path style="opacity:1" fill="#050505" d="M 169.5,212.5 C 172.5,212.5 175.5,212.5 178.5,212.5C 178.5,215.833 178.5,219.167 178.5,222.5C 182.5,222.833 182.5,223.167 178.5,223.5C 179.312,225.743 179.979,228.076 180.5,230.5C 179.381,233.376 179.714,235.876 181.5,238C 180.833,238.333 180.167,238.667 179.5,239C 180.839,241.016 182.672,242.183 185,242.5C 187.482,241.365 189.982,240.199 192.5,239C 193.629,234.921 193.796,230.755 193,226.5C 189.841,225.255 190.007,224.088 193.5,223C 191.638,219.851 190.971,216.351 191.5,212.5C 194.5,212.5 197.5,212.5 200.5,212.5C 200.5,215.833 200.5,219.167 200.5,222.5C 204.5,222.833 204.5,223.167 200.5,223.5C 200.5,224.5 200.5,225.5 200.5,226.5C 201.5,226.5 202.5,226.5 203.5,226.5C 205.142,233.143 204.809,228.476 202.5,212.5C 205.777,212.216 208.943,212.549 212,213.5C 212.42,217.191 212.92,220.858 213.5,224.5C 214.5,224.5 215.5,224.5 216.5,224.5C 217.832,213.7 223.832,209.866 234.5,213C 230.716,216.108 227.716,219.775 225.5,224C 221.148,224.419 220.815,225.086 224.5,226C 223.167,227.333 221.833,228.667 220.5,230C 223.194,232.694 225.86,235.36 228.5,238C 227.833,238.333 227.167,238.667 226.5,239C 229.87,242.035 232.87,245.368 235.5,249C 231.179,249.499 226.846,249.666 222.5,249.5C 222.649,248.448 222.483,247.448 222,246.5C 219.791,244.627 217.958,242.46 216.5,240C 220.5,239.333 220.5,238.667 216.5,238C 216.061,234.535 214.895,234.702 213,238.5C 212.501,242.152 212.335,245.818 212.5,249.5C 209.167,249.5 205.833,249.5 202.5,249.5C 202.823,245.774 202.489,242.107 201.5,238.5C 197.758,248.371 190.758,251.871 180.5,249C 176.278,247.974 172.778,245.807 170,242.5C 170.895,238.565 171.395,234.398 171.5,230C 171.39,227.745 170.39,226.078 168.5,225C 169.328,224.085 170.328,223.419 171.5,223C 169.638,219.851 168.971,216.351 169.5,212.5 Z"/></g>
<g><path style="opacity:1" fill="#181818" d="M 131.5,60.5 C 132.167,61.1667 132.833,61.8333 133.5,62.5C 131.193,63.6534 128.86,64.8201 126.5,66C 125.748,66.6708 125.414,67.5041 125.5,68.5C 126.757,70.68 128.257,72.68 130,74.5C 132.432,73.0342 134.932,71.7008 137.5,70.5C 138.5,70.5 139.5,70.5 140.5,70.5C 97.8011,93.8464 73.4678,129.846 67.5,178.5C 66.5386,176.735 66.2053,174.735 66.5,172.5C 65.5,172.5 64.5,172.5 63.5,172.5C 61.1667,172.5 58.8333,172.5 56.5,172.5C 56.5,175.5 56.5,178.5 56.5,181.5C 60.0122,182.055 63.0122,181.388 65.5,179.5C 66.1667,185.833 66.8333,192.167 67.5,198.5C 74.8583,259.575 107.858,299.241 166.5,317.5C 165.494,317.938 165.494,318.604 166.5,319.5C 163.994,318.25 161.327,317.584 158.5,317.5C 158.244,319.937 157.577,322.271 156.5,324.5C 158.146,326.09 160.146,327.09 162.5,327.5C 162.5,327.833 162.5,328.167 162.5,328.5C 161.508,328.328 160.842,328.662 160.5,329.5C 136.87,323.356 116.203,312.022 98.5,295.5C 97.5,293.833 96.1667,292.5 94.5,291.5C 94.1667,291.5 93.8333,291.5 93.5,291.5C 93.5,290.833 93.1667,290.5 92.5,290.5C 92.5,289.833 92.1667,289.5 91.5,289.5C 91.5,288.833 91.1667,288.5 90.5,288.5C 87.1667,283.833 83.8333,279.167 80.5,274.5C 79.4884,273.128 78.4884,271.795 77.5,270.5C 62.9237,248.771 54.9237,224.771 53.5,198.5C 53.3012,188.473 53.6345,178.473 54.5,168.5C 56.0261,159.395 58.0261,150.395 60.5,141.5C 62.0697,138.686 63.4031,135.686 64.5,132.5C 64.5,132.167 64.5,131.833 64.5,131.5C 65.6737,130.486 66.3404,129.153 66.5,127.5C 81.0058,98.326 102.672,75.9926 131.5,60.5 Z M 66.5,134.5 C 65.4552,137.114 64.9552,139.78 65,142.5C 67.3333,143.5 69.6667,144.5 72,145.5C 73.4301,142.647 74.2634,139.647 74.5,136.5C 71.8333,135.833 69.1667,135.167 66.5,134.5 Z M 75.5,116.5 C 74.3065,119.052 72.9732,121.552 71.5,124C 74.0184,125.502 76.5184,127.002 79,128.5C 80.5,126.167 82,123.833 83.5,121.5C 81.3529,119.023 78.6863,117.356 75.5,116.5 Z M 86.5,100.5 C 85.0459,102.571 83.7125,104.738 82.5,107C 84.356,109.181 86.5227,111.015 89,112.5C 95.5372,106.947 94.7038,102.947 86.5,100.5 Z M 100.5,85.5 C 98.7059,87.7966 96.7059,89.9633 94.5,92C 96.3501,94.0176 98.3501,95.8509 100.5,97.5C 102.833,95.8333 104.833,93.8333 106.5,91.5C 104.812,89.1455 102.812,87.1455 100.5,85.5 Z M 114.5,73.5 C 112.673,74.9319 111.006,76.5986 109.5,78.5C 110.443,81.1092 112.11,83.1092 114.5,84.5C 116.968,83.1971 119.301,81.6971 121.5,80C 119.688,77.1395 117.354,74.9729 114.5,73.5 Z M 110.5,290.5 C 108.856,292.481 107.19,294.481 105.5,296.5C 107.19,299.024 109.357,301.024 112,302.5C 118.399,297.551 117.899,293.551 110.5,290.5 Z M 125.5,301.5 C 123.968,304.057 122.301,306.557 120.5,309C 123.249,310.123 125.749,311.623 128,313.5C 129.697,311.301 131.197,308.968 132.5,306.5C 130.45,304.453 128.117,302.786 125.5,301.5 Z M 141.5,310.5 C 140.213,313.406 139.213,316.406 138.5,319.5C 141.265,319.798 143.765,320.798 146,322.5C 147.45,319.992 148.617,317.325 149.5,314.5C 147.09,312.628 144.423,311.295 141.5,310.5 Z"/></g>
<g><path style="opacity:0.931" fill="#ececec" d="M 59.5,210.5 C 62.1667,210.5 64.8333,210.5 67.5,210.5C 67.2739,213.249 67.6072,215.916 68.5,218.5C 65.3462,220.026 62.0128,220.693 58.5,220.5C 58.6556,217.934 58.3223,215.434 57.5,213C 58.0556,211.989 58.7222,211.156 59.5,210.5 Z"/></g>
<g><path style="opacity:1" fill="#fcfcfc" d="M 65.5,195.5 C 65.9227,197.781 65.256,199.448 63.5,200.5C 61.1667,200.5 58.8333,200.5 56.5,200.5C 56.5,197.833 56.5,195.167 56.5,192.5C 59.1667,192.5 61.8333,192.5 64.5,192.5C 64.2627,193.791 64.596,194.791 65.5,195.5 Z"/></g>
<g><path style="opacity:1" fill="#b1b1b1" d="M 65.5,195.5 C 64.596,194.791 64.2627,193.791 64.5,192.5C 61.8333,192.5 59.1667,192.5 56.5,192.5C 56.5,195.167 56.5,197.833 56.5,200.5C 58.8333,200.5 61.1667,200.5 63.5,200.5C 61.0521,201.473 58.3854,201.806 55.5,201.5C 55.5,198.167 55.5,194.833 55.5,191.5C 58.8333,191.5 62.1667,191.5 65.5,191.5C 65.5,192.833 65.5,194.167 65.5,195.5 Z"/></g>
<g><path style="opacity:1" fill="#efefef" d="M 60.5,152.5 C 63.4261,153.461 66.4261,154.127 69.5,154.5C 69.1489,157.238 68.4822,159.904 67.5,162.5C 64.6267,162.876 61.6267,162.876 58.5,162.5C 58.7878,159.061 59.4544,155.728 60.5,152.5 Z"/></g>
<g><path style="opacity:1" fill="#ededed" d="M 327.5,226.5 C 330.785,226.736 333.785,227.736 336.5,229.5C 335.215,232.021 334.548,234.687 334.5,237.5C 331.123,237.041 327.789,236.374 324.5,235.5C 324.905,232.285 325.905,229.285 327.5,226.5 Z"/></g>
<g><path style="opacity:0.999" fill="#efefef" d="M 67.5,228.5 C 68.9778,228.238 70.3112,228.571 71.5,229.5C 72.4822,232.096 73.1489,234.762 73.5,237.5C 70.5,238.167 67.5,238.833 64.5,239.5C 64.2866,236.525 63.2866,233.858 61.5,231.5C 63.5939,230.482 65.5939,229.482 67.5,228.5 Z"/></g>
<g><path style="opacity:0.501" fill="#ebebeb" d="M 324.5,245.5 C 322.707,245.884 321.707,247.05 321.5,249C 322.32,250.8 322.986,252.634 323.5,254.5C 321.243,254.038 319.243,253.038 317.5,251.5C 318.306,248.554 319.639,245.888 321.5,243.5C 322.739,243.942 323.739,244.609 324.5,245.5 Z"/></g>
<g><path style="opacity:0.996" fill="#f1f1f1" d="M 76.5,245.5 C 78.5152,247.676 80.1819,250.176 81.5,253C 75.4629,259.969 71.4629,258.969 69.5,250C 71.5626,247.975 73.896,246.475 76.5,245.5 Z"/></g>
<g><path style="opacity:1" fill="#e0e0e0" d="M 335.5,240.5 C 335.821,242.048 336.821,242.715 338.5,242.5C 333.692,256.962 326.359,269.962 316.5,281.5C 316.573,279.973 315.906,278.973 314.5,278.5C 323.081,266.668 330.081,254.001 335.5,240.5 Z"/></g>
<g><path style="opacity:0.6" fill="#ededed" d="M 319.5,264.5 C 317.199,265.06 314.866,265.56 312.5,266C 311.177,266.816 310.511,267.983 310.5,269.5C 309.373,268.878 308.373,268.045 307.5,267C 308.985,264.523 310.819,262.356 313,260.5C 315.594,261.285 317.761,262.618 319.5,264.5 Z"/></g>
<g><path style="opacity:0.886" fill="#3a3a3a" d="M 49.5,199.5 C 50.358,205.017 51.1914,210.683 52,216.5C 55.4399,237.691 63.6066,256.691 76.5,273.5C 78.6602,277.815 81.3269,281.815 84.5,285.5C 83.5084,285.328 82.8417,285.662 82.5,286.5C 63.9176,264.987 52.5843,239.987 48.5,211.5C 49.4834,207.702 49.8168,203.702 49.5,199.5 Z"/></g>
<g><path style="opacity:0.976" fill="#efefef" d="M 84.5,262.5 C 88.2128,263.042 90.5461,265.208 91.5,269C 89.1667,270.833 86.8333,272.667 84.5,274.5C 82.3404,272.169 80.3404,269.669 78.5,267C 80.3893,265.236 82.3893,263.736 84.5,262.5 Z"/></g>
<g><path style="opacity:0.18" fill="#848484" d="M 335.5,263.5 C 336.147,264.274 336.48,265.274 336.5,266.5C 336.36,268.03 335.693,269.03 334.5,269.5C 335.341,267.621 335.675,265.621 335.5,263.5 Z"/></g>
<g><path style="opacity:0.033" fill="#e5e5e5" d="M 77.5,270.5 C 78.4884,271.795 79.4884,273.128 80.5,274.5C 79.0379,275.471 77.7046,275.138 76.5,273.5C 76.5569,272.391 76.8902,271.391 77.5,270.5 Z"/></g>
<g><path style="opacity:0.999" fill="#ebebeb" d="M 300.5,275.5 C 310.398,278.412 310.898,282.412 302,287.5C 295.344,284.221 294.844,280.221 300.5,275.5 Z"/></g>
<g><path style="opacity:0.982" fill="#ededed" d="M 96.5,276.5 C 99.0974,278.431 101.431,280.764 103.5,283.5C 101.833,285.833 99.8333,287.833 97.5,289.5C 94.6894,287.856 92.356,285.69 90.5,283C 92.7059,280.963 94.7059,278.797 96.5,276.5 Z"/></g>
<g><path style="opacity:0.877" fill="#e1e1e1" d="M 299.5,295.5 C 299.833,296.5 300.5,297.167 301.5,297.5C 288.682,310.63 273.682,320.63 256.5,327.5C 256.835,325.997 256.835,324.664 256.5,323.5C 259.759,321.847 263.093,320.181 266.5,318.5C 267.167,319.833 267.833,319.833 268.5,318.5C 269.833,318.167 269.833,317.833 268.5,317.5C 279.366,310.976 289.699,303.643 299.5,295.5 Z"/></g>
<g><path style="opacity:1" fill="#c8c8c8" d="M 147.5,297.5 C 149.861,297.674 152.194,298.007 154.5,298.5C 154.263,299.791 154.596,300.791 155.5,301.5C 155.631,302.376 155.298,303.043 154.5,303.5C 153.719,302.271 153.219,300.938 153,299.5C 150.496,303.601 149.662,303.434 150.5,299C 148.965,299.661 147.298,299.994 145.5,300C 146.066,299.005 146.733,298.172 147.5,297.5 Z"/></g>
<g><path style="opacity:0.919" fill="#e1e1e1" d="M 84.5,285.5 C 86.0532,287.385 88.0532,288.385 90.5,288.5C 91.1667,288.5 91.5,288.833 91.5,289.5C 92.1667,289.5 92.5,289.833 92.5,290.5C 93.1667,290.5 93.5,290.833 93.5,291.5C 93.8333,292.833 94.1667,292.833 94.5,291.5C 96.1667,292.5 97.5,293.833 98.5,295.5C 116.203,312.022 136.87,323.356 160.5,329.5C 160.5,329.833 160.5,330.167 160.5,330.5C 159.1,331.1 158.1,332.1 157.5,333.5C 132.847,326.129 111.514,313.463 93.5,295.5C 89.7657,292.769 86.7657,289.436 84.5,285.5 Z"/></g>
<g><path style="opacity:1" fill="#353535" d="M 216.5,38.5 C 237.884,40.6834 257.884,47.1834 276.5,58C 335.065,96.9903 358.898,151.49 348,221.5C 330.852,285.483 290.018,324.816 225.5,339.5C 225.611,338.883 225.944,338.383 226.5,338C 224.19,337.503 221.857,337.337 219.5,337.5C 227.386,335.855 235.386,334.188 243.5,332.5C 245.027,332.573 246.027,331.906 246.5,330.5C 249.833,329.5 253.167,328.5 256.5,327.5C 273.682,320.63 288.682,310.63 301.5,297.5C 307.205,292.796 312.205,287.463 316.5,281.5C 326.359,269.962 333.692,256.962 338.5,242.5C 350.131,211.327 351.464,179.66 342.5,147.5C 342.768,145.901 342.434,144.568 341.5,143.5C 340.833,143.5 340.5,143.167 340.5,142.5C 340.371,140.784 340.038,139.117 339.5,137.5C 324.101,97.4345 296.767,68.7679 257.5,51.5C 254.156,50.4925 250.823,49.4925 247.5,48.5C 246.833,48.5 246.5,48.1667 246.5,47.5C 234.311,43.6994 221.977,41.0328 209.5,39.5C 212.059,39.8016 214.393,39.4682 216.5,38.5 Z"/></g>
<g><path style="opacity:0.733" fill="#515151" d="M 240.5,314.5 C 241.11,315.391 241.443,316.391 241.5,317.5C 240.883,317.389 240.383,317.056 240,316.5C 237.993,317.669 235.827,318.335 233.5,318.5C 233.5,320.167 233.5,321.833 233.5,323.5C 233.06,321.156 232.06,319.156 230.5,317.5C 233.642,316.21 236.975,315.21 240.5,314.5 Z"/></g>
<g><path style="opacity:0.982" fill="#303030" d="M 84.5,285.5 C 86.7657,289.436 89.7657,292.769 93.5,295.5C 111.514,313.463 132.847,326.129 157.5,333.5C 163.192,334.372 168.859,335.372 174.5,336.5C 185.4,339.272 196.4,339.939 207.5,338.5C 211.466,337.838 215.466,337.505 219.5,337.5C 221.857,337.337 224.19,337.503 226.5,338C 225.944,338.383 225.611,338.883 225.5,339.5C 196.347,344.038 168.014,341.038 140.5,330.5C 133.417,326.456 126.084,322.623 118.5,319C 104.645,310.236 92.6449,299.403 82.5,286.5C 82.8417,285.662 83.5084,285.328 84.5,285.5 Z"/></g>
<g><path style="opacity:0.999" fill="#141414" d="M 166.5,317.5 C 187.823,322.701 209.157,322.701 230.5,317.5C 232.06,319.156 233.06,321.156 233.5,323.5C 234.022,325.219 235.022,326.552 236.5,327.5C 238.099,327.232 239.432,327.566 240.5,328.5C 238.694,329.024 237.028,329.691 235.5,330.5C 231.03,332.321 226.364,333.321 221.5,333.5C 206.483,334.736 191.483,334.736 176.5,333.5C 171.115,332.756 165.782,331.756 160.5,330.5C 160.5,330.167 160.5,329.833 160.5,329.5C 160.842,328.662 161.508,328.328 162.5,328.5C 163.833,328.5 165.167,328.5 166.5,328.5C 166.5,327.5 166.5,326.5 166.5,325.5C 166.954,323.259 166.954,321.259 166.5,319.5C 165.494,318.604 165.494,317.938 166.5,317.5 Z M 185.5,330.5 C 183.043,330.792 180.376,330.792 177.5,330.5C 176.624,330.631 175.957,330.298 175.5,329.5C 176.213,327.224 176.713,324.891 177,322.5C 179.718,321.987 182.551,321.987 185.5,322.5C 185.5,325.167 185.5,327.833 185.5,330.5 Z M 217.5,321.5 C 218.5,321.5 219.5,321.5 220.5,321.5C 221.778,321.782 222.778,322.449 223.5,323.5C 223.357,325.262 223.691,326.929 224.5,328.5C 223.757,329.182 223.091,329.849 222.5,330.5C 219.467,330.868 216.8,330.202 214.5,328.5C 214.5,327.167 214.5,325.833 214.5,324.5C 215.1,323.1 216.1,322.1 217.5,321.5 Z M 204.5,332.5 C 201.5,332.5 198.5,332.5 195.5,332.5C 195.5,329.5 195.5,326.5 195.5,323.5C 198.5,323.5 201.5,323.5 204.5,323.5C 204.5,326.5 204.5,329.5 204.5,332.5 Z"/></g>
<g><path style="opacity:0.118" fill="#a7a7a7" d="M 290.5,317.5 C 288.012,319.388 285.012,320.055 281.5,319.5C 284.39,318.755 287.39,318.088 290.5,317.5 Z"/></g>
<g><path style="opacity:0.471" fill="#7c7c7c" d="M 217.5,321.5 C 216.1,322.1 215.1,323.1 214.5,324.5C 213.596,323.791 213.263,322.791 213.5,321.5C 214.833,321.5 216.167,321.5 217.5,321.5 Z"/></g>
<g><path style="opacity:0.035" fill="#a7a7a7" d="M 220.5,321.5 C 221.209,320.596 222.209,320.263 223.5,320.5C 223.5,321.5 223.5,322.5 223.5,323.5C 222.778,322.449 221.778,321.782 220.5,321.5 Z"/></g>
<g><path style="opacity:0.2" fill="#969696" d="M 166.5,325.5 C 166.5,326.5 166.5,327.5 166.5,328.5C 165.167,328.5 163.833,328.5 162.5,328.5C 162.5,328.167 162.5,327.833 162.5,327.5C 164.199,327.473 165.533,326.806 166.5,325.5 Z"/></g>
<g><path style="opacity:0.05" fill="#cecece" d="M 245.5,327.5 C 245.263,328.791 245.596,329.791 246.5,330.5C 246.027,331.906 245.027,332.573 243.5,332.5C 243.611,331.883 243.944,331.383 244.5,331C 241.518,330.502 238.518,330.335 235.5,330.5C 237.028,329.691 238.694,329.024 240.5,328.5C 242.216,328.371 243.883,328.038 245.5,327.5 Z"/></g>
<g><path style="opacity:0.855" fill="#5c5c5c" d="M 214.5,328.5 C 216.8,330.202 219.467,330.868 222.5,330.5C 220.052,331.473 217.385,331.806 214.5,331.5C 214.5,330.5 214.5,329.5 214.5,328.5 Z"/></g>
<g><path style="opacity:0.757" fill="#737373" d="M 177.5,330.5 C 180.376,330.792 183.043,330.792 185.5,330.5C 185.53,331.497 185.03,332.164 184,332.5C 181.654,332.01 179.487,331.343 177.5,330.5 Z"/></g>
<g><path style="opacity:0.392" fill="#7e7e7e" d="M 204.5,332.5 C 204.5,329.5 204.5,326.5 204.5,323.5C 201.5,323.5 198.5,323.5 195.5,323.5C 195.5,326.5 195.5,329.5 195.5,332.5C 194.521,329.375 194.187,326.042 194.5,322.5C 198.167,322.5 201.833,322.5 205.5,322.5C 205.813,326.042 205.479,329.375 204.5,332.5 Z M 204.5,332.5 C 201.5,332.5 198.5,332.5 195.5,332.5C 195.5,329.5 195.5,326.5 195.5,323.5C 198.5,323.5 201.5,323.5 204.5,323.5C 204.5,326.5 204.5,329.5 204.5,332.5 Z"/></g>
<g><path style="opacity:0.059" fill="#d2d2d2" d="M 176.5,333.5 C 191.483,334.736 206.483,334.736 221.5,333.5C 220.428,335.84 218.761,336.173 216.5,334.5C 208.264,336.238 199.931,337.405 191.5,338C 196.823,338.499 202.156,338.666 207.5,338.5C 196.4,339.939 185.4,339.272 174.5,336.5C 175.873,336.657 177.207,336.49 178.5,336C 177.244,335.583 176.577,334.75 176.5,333.5 Z"/></g>
</svg>
